<?xml version="1.0" encoding="us-ascii" standalone="no"?><svg xmlns="http://www.w3.org/2000/svg" xmlns:xlink="http://www.w3.org/1999/xlink" contentStyleType="text/css" height="606px" preserveAspectRatio="none" style="width:1802px;height:606px;background:#FFFFFF;" version="1.1" viewBox="0 0 1802 606" width="1802px" zoomAndPan="magnify"><defs/><g><rect fill="#FFFFFF" height="441.3652" style="stroke:#181818;stroke-width:1.0;" width="10" x="353" y="90.5332"/><rect fill="#FFFFFF" height="378.7832" style="stroke:#181818;stroke-width:1.0;" width="10" x="693" y="121.8242"/><rect fill="#FFFFFF" height="316.2012" style="stroke:#181818;stroke-width:1.0;" width="10" x="931" y="153.1152"/><rect fill="#FFFFFF" height="236.3281" style="stroke:#181818;stroke-width:1.0;" width="10" x="1169" y="201.6973"/><rect fill="#FFFFFF" height="156.4551" style="stroke:#181818;stroke-width:1.0;" width="10" x="1437" y="250.2793"/><rect fill="#FFFFFF" height="31.291" style="stroke:#181818;stroke-width:1.0;" width="10" x="1675" y="344.1523"/><rect fill="#FFFFFF" height="31.291" style="stroke:#181818;stroke-width:1.0;" width="10" x="1753.5" y="281.5703"/><line style="stroke:#181818;stroke-width:0.5;stroke-dasharray:5.0,5.0;" x1="358" x2="358" y1="57.2422" y2="549.8984"/><line style="stroke:#181818;stroke-width:0.5;stroke-dasharray:5.0,5.0;" x1="697.5" x2="697.5" y1="57.2422" y2="549.8984"/><line style="stroke:#181818;stroke-width:0.5;stroke-dasharray:5.0,5.0;" x1="936" x2="936" y1="57.2422" y2="549.8984"/><line style="stroke:#181818;stroke-width:0.5;stroke-dasharray:5.0,5.0;" x1="1173.5" x2="1173.5" y1="57.2422" y2="549.8984"/><line style="stroke:#181818;stroke-width:0.5;stroke-dasharray:5.0,5.0;" x1="1442" x2="1442" y1="57.2422" y2="549.8984"/><line style="stroke:#181818;stroke-width:0.5;stroke-dasharray:5.0,5.0;" x1="1680" x2="1680" y1="57.2422" y2="549.8984"/><line style="stroke:#181818;stroke-width:0.5;stroke-dasharray:5.0,5.0;" x1="1758" x2="1758" y1="57.2422" y2="549.8984"/><rect fill="#E2E2F0" height="51.2422" rx="2.5" ry="2.5" style="stroke:#181818;stroke-width:0.5;" width="152" x="282" y="5"/><text fill="#000000" font-family="sans-serif" font-size="14" lengthAdjust="spacing" textLength="100" x="308" y="27.1074">&#171;Container C4&#187;</text><text fill="#000000" font-family="sans-serif" font-size="14" lengthAdjust="spacing" textLength="138" x="289" y="45.7285">Campus Management</text><rect fill="#E2E2F0" height="51.2422" rx="2.5" ry="2.5" style="stroke:#181818;stroke-width:0.5;" width="152" x="282" y="548.8984"/><text fill="#000000" font-family="sans-serif" font-size="14" lengthAdjust="spacing" textLength="100" x="308" y="571.0059">&#171;Container C4&#187;</text><text fill="#000000" font-family="sans-serif" font-size="14" lengthAdjust="spacing" textLength="138" x="289" y="589.627">Campus Management</text><rect fill="#E2E2F0" height="32.6211" rx="2.5" ry="2.5" style="stroke:#181818;stroke-width:0.5;" width="63" x="666.5" y="23.6211"/><text fill="#000000" font-family="sans-serif" font-size="14" lengthAdjust="spacing" textLength="49" x="673.5" y="45.7285">Routing</text><rect fill="#E2E2F0" height="32.6211" rx="2.5" ry="2.5" style="stroke:#181818;stroke-width:0.5;" width="63" x="666.5" y="548.8984"/><text fill="#000000" font-family="sans-serif" font-size="14" lengthAdjust="spacing" textLength="49" x="673.5" y="571.0059">Routing</text><rect fill="#E2E2F0" height="32.6211" rx="2.5" ry="2.5" style="stroke:#181818;stroke-width:0.5;" width="76" x="898" y="23.6211"/><text fill="#000000" font-family="sans-serif" font-size="14" lengthAdjust="spacing" textLength="62" x="905" y="45.7285">Controller</text><rect fill="#E2E2F0" height="32.6211" rx="2.5" ry="2.5" style="stroke:#181818;stroke-width:0.5;" width="76" x="898" y="548.8984"/><text fill="#000000" font-family="sans-serif" font-size="14" lengthAdjust="spacing" textLength="62" x="905" y="571.0059">Controller</text><rect fill="#E2E2F0" height="32.6211" rx="2.5" ry="2.5" style="stroke:#181818;stroke-width:0.5;" width="61" x="1143.5" y="23.6211"/><text fill="#000000" font-family="sans-serif" font-size="14" lengthAdjust="spacing" textLength="47" x="1150.5" y="45.7285">Service</text><rect fill="#E2E2F0" height="32.6211" rx="2.5" ry="2.5" style="stroke:#181818;stroke-width:0.5;" width="61" x="1143.5" y="548.8984"/><text fill="#000000" font-family="sans-serif" font-size="14" lengthAdjust="spacing" textLength="47" x="1150.5" y="571.0059">Service</text><rect fill="#E2E2F0" height="32.6211" rx="2.5" ry="2.5" style="stroke:#181818;stroke-width:0.5;" width="82" x="1401" y="23.6211"/><text fill="#000000" font-family="sans-serif" font-size="14" lengthAdjust="spacing" textLength="68" x="1408" y="45.7285">Repository</text><rect fill="#E2E2F0" height="32.6211" rx="2.5" ry="2.5" style="stroke:#181818;stroke-width:0.5;" width="82" x="1401" y="548.8984"/><text fill="#000000" font-family="sans-serif" font-size="14" lengthAdjust="spacing" textLength="68" x="1408" y="571.0059">Repository</text><rect fill="#E2E2F0" height="32.6211" rx="2.5" ry="2.5" style="stroke:#181818;stroke-width:0.5;" width="62" x="1649" y="23.6211"/><text fill="#000000" font-family="sans-serif" font-size="14" lengthAdjust="spacing" textLength="48" x="1656" y="45.7285">Mapper</text><rect fill="#E2E2F0" height="32.6211" rx="2.5" ry="2.5" style="stroke:#181818;stroke-width:0.5;" width="62" x="1649" y="548.8984"/><text fill="#000000" font-family="sans-serif" font-size="14" lengthAdjust="spacing" textLength="48" x="1656" y="571.0059">Mapper</text><rect fill="#E2E2F0" height="32.6211" rx="2.5" ry="2.5" style="stroke:#181818;stroke-width:0.5;" width="75" x="1721" y="23.6211"/><text fill="#000000" font-family="sans-serif" font-size="14" lengthAdjust="spacing" textLength="61" x="1728" y="45.7285">Database</text><rect fill="#E2E2F0" height="32.6211" rx="2.5" ry="2.5" style="stroke:#181818;stroke-width:0.5;" width="75" x="1721" y="548.8984"/><text fill="#000000" font-family="sans-serif" font-size="14" lengthAdjust="spacing" textLength="61" x="1728" y="571.0059">Database</text><rect fill="#FFFFFF" height="441.3652" style="stroke:#181818;stroke-width:1.0;" width="10" x="353" y="90.5332"/><rect fill="#FFFFFF" height="378.7832" style="stroke:#181818;stroke-width:1.0;" width="10" x="693" y="121.8242"/><rect fill="#FFFFFF" height="316.2012" style="stroke:#181818;stroke-width:1.0;" width="10" x="931" y="153.1152"/><rect fill="#FFFFFF" height="236.3281" style="stroke:#181818;stroke-width:1.0;" width="10" x="1169" y="201.6973"/><rect fill="#FFFFFF" height="156.4551" style="stroke:#181818;stroke-width:1.0;" width="10" x="1437" y="250.2793"/><rect fill="#FFFFFF" height="31.291" style="stroke:#181818;stroke-width:1.0;" width="10" x="1675" y="344.1523"/><rect fill="#FFFFFF" height="31.291" style="stroke:#181818;stroke-width:1.0;" width="10" x="1753.5" y="281.5703"/><polygon fill="#181818" points="341,86.5332,351,90.5332,341,94.5332,345,90.5332" style="stroke:#181818;stroke-width:1.0;"/><line style="stroke:#181818;stroke-width:1.0;stroke-dasharray:2.0,2.0;" x1="0" x2="347" y1="90.5332" y2="90.5332"/><text fill="#000000" font-family="sans-serif" font-size="13" lengthAdjust="spacing" textLength="334" x="7" y="85.2705">Get request: "/api/floor/getFloorsByBuildingId/:building_id"</text><polygon fill="#181818" points="681,117.8242,691,121.8242,681,125.8242,685,121.8242" style="stroke:#181818;stroke-width:1.0;"/><line style="stroke:#181818;stroke-width:1.0;" x1="363" x2="687" y1="121.8242" y2="121.8242"/><text fill="#000000" font-family="sans-serif" font-size="13" lengthAdjust="spacing" textLength="311" x="370" y="116.5615">Route to "/api/floor/getFloorsByBuildingId/:building_id"</text><polygon fill="#181818" points="919,149.1152,929,153.1152,919,157.1152,923,153.1152" style="stroke:#181818;stroke-width:1.0;"/><line style="stroke:#181818;stroke-width:1.0;" x1="703" x2="925" y1="153.1152" y2="153.1152"/><text fill="#000000" font-family="sans-serif" font-size="13" lengthAdjust="spacing" textLength="209" x="710" y="147.8525">Call "getFloorsByBuildingId" method</text><polygon fill="#181818" points="1157,197.6973,1167,201.6973,1157,205.6973,1161,201.6973" style="stroke:#181818;stroke-width:1.0;"/><line style="stroke:#181818;stroke-width:1.0;" x1="941" x2="1163" y1="201.6973" y2="201.6973"/><text fill="#000000" font-family="sans-serif" font-size="13" lengthAdjust="spacing" textLength="209" x="948" y="179.1436">Call "getFloorsByBuildingId" method</text><text fill="#000000" font-family="sans-serif" font-size="13" lengthAdjust="spacing" textLength="186" x="948" y="196.4346">(Using building_id as parameter)</text><polygon fill="#181818" points="1425,246.2793,1435,250.2793,1425,254.2793,1429,250.2793" style="stroke:#181818;stroke-width:1.0;"/><line style="stroke:#181818;stroke-width:1.0;" x1="1179" x2="1431" y1="250.2793" y2="250.2793"/><text fill="#000000" font-family="sans-serif" font-size="13" lengthAdjust="spacing" textLength="239" x="1186" y="227.7256">Find Floor record(s), for a certain Building</text><text fill="#000000" font-family="sans-serif" font-size="13" lengthAdjust="spacing" textLength="186" x="1186" y="245.0166">(Using building_id as parameter)</text><polygon fill="#181818" points="1741.5,277.5703,1751.5,281.5703,1741.5,285.5703,1745.5,281.5703" style="stroke:#181818;stroke-width:1.0;"/><line style="stroke:#181818;stroke-width:1.0;" x1="1447" x2="1747.5" y1="281.5703" y2="281.5703"/><text fill="#000000" font-family="sans-serif" font-size="13" lengthAdjust="spacing" textLength="124" x="1454" y="276.3076">Contact the database</text><polygon fill="#181818" points="1458,308.8613,1448,312.8613,1458,316.8613,1454,312.8613" style="stroke:#181818;stroke-width:1.0;"/><line style="stroke:#181818;stroke-width:1.0;stroke-dasharray:2.0,2.0;" x1="1452" x2="1757.5" y1="312.8613" y2="312.8613"/><text fill="#000000" font-family="sans-serif" font-size="13" lengthAdjust="spacing" textLength="201" x="1464" y="307.5986">Return the Floor record(s) (if found)</text><polygon fill="#181818" points="1663,340.1523,1673,344.1523,1663,348.1523,1667,344.1523" style="stroke:#181818;stroke-width:1.0;"/><line style="stroke:#181818;stroke-width:1.0;" x1="1447" x2="1669" y1="344.1523" y2="344.1523"/><text fill="#000000" font-family="sans-serif" font-size="13" lengthAdjust="spacing" textLength="209" x="1454" y="338.8896">Map the Floor record(s) to FloorDTO</text><polygon fill="#181818" points="1458,371.4434,1448,375.4434,1458,379.4434,1454,375.4434" style="stroke:#181818;stroke-width:1.0;"/><line style="stroke:#181818;stroke-width:1.0;" x1="1452" x2="1679" y1="375.4434" y2="375.4434"/><text fill="#000000" font-family="sans-serif" font-size="13" lengthAdjust="spacing" textLength="158" x="1464" y="370.1807">Return the mapped Floor(s)</text><polygon fill="#181818" points="1190,402.7344,1180,406.7344,1190,410.7344,1186,406.7344" style="stroke:#181818;stroke-width:1.0;"/><line style="stroke:#181818;stroke-width:1.0;stroke-dasharray:2.0,2.0;" x1="1184" x2="1441" y1="406.7344" y2="406.7344"/><text fill="#000000" font-family="sans-serif" font-size="13" lengthAdjust="spacing" textLength="134" x="1196" y="401.4717">Return the FloorDTO(s)</text><polygon fill="#181818" points="952,434.0254,942,438.0254,952,442.0254,948,438.0254" style="stroke:#181818;stroke-width:1.0;"/><line style="stroke:#181818;stroke-width:1.0;stroke-dasharray:2.0,2.0;" x1="946" x2="1173" y1="438.0254" y2="438.0254"/><text fill="#000000" font-family="sans-serif" font-size="13" lengthAdjust="spacing" textLength="134" x="958" y="432.7627">Return the FloorDTO(s)</text><polygon fill="#181818" points="714,465.3164,704,469.3164,714,473.3164,710,469.3164" style="stroke:#181818;stroke-width:1.0;"/><line style="stroke:#181818;stroke-width:1.0;stroke-dasharray:2.0,2.0;" x1="708" x2="935" y1="469.3164" y2="469.3164"/><text fill="#000000" font-family="sans-serif" font-size="13" lengthAdjust="spacing" textLength="134" x="720" y="464.0537">Return the FloorDTO(s)</text><polygon fill="#181818" points="374,496.6074,364,500.6074,374,504.6074,370,500.6074" style="stroke:#181818;stroke-width:1.0;"/><line style="stroke:#181818;stroke-width:1.0;stroke-dasharray:2.0,2.0;" x1="368" x2="697" y1="500.6074" y2="500.6074"/><text fill="#000000" font-family="sans-serif" font-size="13" lengthAdjust="spacing" textLength="180" x="380" y="495.3447">Return the FloorDTO(s) (JSON)</text><polygon fill="#181818" points="11,527.8984,1,531.8984,11,535.8984,7,531.8984" style="stroke:#181818;stroke-width:1.0;"/><line style="stroke:#181818;stroke-width:1.0;stroke-dasharray:2.0,2.0;" x1="5" x2="357" y1="531.8984" y2="531.8984"/><text fill="#000000" font-family="sans-serif" font-size="13" lengthAdjust="spacing" textLength="265" x="17" y="526.6357">Return response: FloorDTO(s) in JSON format</text><!--SRC=[fLF1QkD03BtxAuHF2Qp9PKyXv12xBLjeiwJfhR2e7YKTi6VScN6XVx_Is8tj46XBRxAbzoGzlMdG1Ltg1as0TBNAhGce3Jd8Vw_NJoR7kcaztA718zLaGWheOLVS9CqOkBDjqERO9RUF-sbMI9sjAdAn8D_lfla7Sc-wf9YK-8oR6kjriEwzex_wkvqMt67JzDHTE4qN6F0PVKTVR98aozQo0IpXXW8uUct9XoMa2spqub1PwnP72jSI-CtxfjMLujt-gCNokO__QPKcM0RzXe6Y6i8djBmxyueS1C7-W5D4Z6pCoe8nQOvL1Ub5bXHg2YzM3NZHM62C5aM_1dyoiqVFVs0qauZ6SY9Na9iF3UAT8hMipJVX5jVQA8Zqh6ffdPhv-Iyuy2T2IKwC1HzTlzChdZpsu5x5HfOHcvO1mWk1wkyxrFEHkIeR1jjHQ9s9rMVZmKmVUCBMg7cYQCpmqQ-p59DmS961pnn_5VljC49ln1vySP9QShrUp3DktwEx4OOJdg_17S-0KQdkAYVVV8wAjunk6LduKvHOh7FewJrT1i7izc5xFvrJxBtACi6TO8vyOusdvGJCdX6usAZ6C27XT_SV]--></g></svg>