<?xml version="1.0" encoding="us-ascii" standalone="no"?><svg xmlns="http://www.w3.org/2000/svg" xmlns:xlink="http://www.w3.org/1999/xlink" contentStyleType="text/css" height="634.9px" preserveAspectRatio="none" style="width:1494px;height:634px;background:#FFFFFF;" version="1.1" viewBox="0 0 1494 634" width="1494.5px" zoomAndPan="magnify"><defs/><g><rect fill="#FFFFFF" height="519.7965" style="stroke:#181818;stroke-width:0.6999999999999998;" width="7" x="259" y="63.3732"/><rect fill="#FFFFFF" height="475.9891" style="stroke:#181818;stroke-width:0.6999999999999998;" width="7" x="508.9" y="85.277"/><rect fill="#FFFFFF" height="432.1816" style="stroke:#181818;stroke-width:0.6999999999999998;" width="7" x="721.7" y="107.1807"/><rect fill="#FFFFFF" height="388.3742" style="stroke:#181818;stroke-width:0.6999999999999998;" width="7" x="934.5" y="129.0844"/><rect fill="#FFFFFF" height="109.5186" style="stroke:#181818;stroke-width:0.6999999999999998;" width="7" x="1145.9" y="150.9881"/><rect fill="#FFFFFF" height="109.5186" style="stroke:#181818;stroke-width:0.6999999999999998;" width="7" x="1239.35" y="318.7215"/><rect fill="#FFFFFF" height="21.9037" style="stroke:#181818;stroke-width:0.6999999999999998;" width="7" x="1405.95" y="216.6992"/><rect fill="#FFFFFF" height="21.9037" style="stroke:#181818;stroke-width:0.6999999999999998;" width="7" x="1405.95" y="384.4326"/><rect fill="#FFFFFF" height="21.9037" style="stroke:#181818;stroke-width:0.6999999999999998;" width="7" x="1460.9" y="172.8918"/><rect fill="#FFFFFF" height="21.9037" style="stroke:#181818;stroke-width:0.6999999999999998;" width="7" x="1460.9" y="340.6252"/><line style="stroke:#181818;stroke-width:0.3499999999999999;stroke-dasharray:5.0,5.0;" x1="262.5" x2="262.5" y1="40.0695" y2="595.7697"/><line style="stroke:#181818;stroke-width:0.3499999999999999;stroke-dasharray:5.0,5.0;" x1="512.05" x2="512.05" y1="40.0695" y2="595.7697"/><line style="stroke:#181818;stroke-width:0.3499999999999999;stroke-dasharray:5.0,5.0;" x1="725.2" x2="725.2" y1="40.0695" y2="595.7697"/><line style="stroke:#181818;stroke-width:0.3499999999999999;stroke-dasharray:5.0,5.0;" x1="937.65" x2="937.65" y1="40.0695" y2="595.7697"/><line style="stroke:#181818;stroke-width:0.3499999999999999;stroke-dasharray:5.0,5.0;" x1="1149.4" x2="1149.4" y1="40.0695" y2="595.7697"/><line style="stroke:#181818;stroke-width:0.3499999999999999;stroke-dasharray:5.0,5.0;" x1="1242.5" x2="1242.5" y1="40.0695" y2="595.7697"/><line style="stroke:#181818;stroke-width:0.3499999999999999;stroke-dasharray:5.0,5.0;" x1="1409.45" x2="1409.45" y1="40.0695" y2="595.7697"/><line style="stroke:#181818;stroke-width:0.3499999999999999;stroke-dasharray:5.0,5.0;" x1="1464.05" x2="1464.05" y1="40.0695" y2="595.7697"/><rect fill="#E2E2F0" height="35.8695" rx="1.75" ry="1.75" style="stroke:#181818;stroke-width:0.3499999999999999;" width="106.4" x="209.3" y="3.5"/><text fill="#000000" font-family="sans-serif" font-size="9.8" lengthAdjust="spacing" textLength="70" x="227.5" y="18.9752">&#171;Container C4&#187;</text><text fill="#000000" font-family="sans-serif" font-size="9.8" lengthAdjust="spacing" textLength="96.6" x="214.2" y="32.01">Campus Management</text><rect fill="#E2E2F0" height="35.8695" rx="1.75" ry="1.75" style="stroke:#181818;stroke-width:0.3499999999999999;" width="106.4" x="209.3" y="595.0697"/><text fill="#000000" font-family="sans-serif" font-size="9.8" lengthAdjust="spacing" textLength="70" x="227.5" y="610.5449">&#171;Container C4&#187;</text><text fill="#000000" font-family="sans-serif" font-size="9.8" lengthAdjust="spacing" textLength="96.6" x="214.2" y="623.5797">Campus Management</text><rect fill="#E2E2F0" height="22.8348" rx="1.75" ry="1.75" style="stroke:#181818;stroke-width:0.3499999999999999;" width="44.1" x="490.35" y="16.5348"/><text fill="#000000" font-family="sans-serif" font-size="9.8" lengthAdjust="spacing" textLength="34.3" x="495.25" y="32.01">Routing</text><rect fill="#E2E2F0" height="22.8348" rx="1.75" ry="1.75" style="stroke:#181818;stroke-width:0.3499999999999999;" width="44.1" x="490.35" y="595.0697"/><text fill="#000000" font-family="sans-serif" font-size="9.8" lengthAdjust="spacing" textLength="34.3" x="495.25" y="610.5449">Routing</text><rect fill="#E2E2F0" height="22.8348" rx="1.75" ry="1.75" style="stroke:#181818;stroke-width:0.3499999999999999;" width="53.2" x="698.6" y="16.5348"/><text fill="#000000" font-family="sans-serif" font-size="9.8" lengthAdjust="spacing" textLength="43.4" x="703.5" y="32.01">Controller</text><rect fill="#E2E2F0" height="22.8348" rx="1.75" ry="1.75" style="stroke:#181818;stroke-width:0.3499999999999999;" width="53.2" x="698.6" y="595.0697"/><text fill="#000000" font-family="sans-serif" font-size="9.8" lengthAdjust="spacing" textLength="43.4" x="703.5" y="610.5449">Controller</text><rect fill="#E2E2F0" height="22.8348" rx="1.75" ry="1.75" style="stroke:#181818;stroke-width:0.3499999999999999;" width="42.7" x="916.65" y="16.5348"/><text fill="#000000" font-family="sans-serif" font-size="9.8" lengthAdjust="spacing" textLength="32.9" x="921.55" y="32.01">Service</text><rect fill="#E2E2F0" height="22.8348" rx="1.75" ry="1.75" style="stroke:#181818;stroke-width:0.3499999999999999;" width="42.7" x="916.65" y="595.0697"/><text fill="#000000" font-family="sans-serif" font-size="9.8" lengthAdjust="spacing" textLength="32.9" x="921.55" y="610.5449">Service</text><rect fill="#E2E2F0" height="22.8348" rx="1.75" ry="1.75" style="stroke:#181818;stroke-width:0.3499999999999999;" width="92.4" x="1103.2" y="16.5348"/><text fill="#000000" font-family="sans-serif" font-size="9.8" lengthAdjust="spacing" textLength="82.6" x="1108.1" y="32.01">BuildingRepository</text><rect fill="#E2E2F0" height="22.8348" rx="1.75" ry="1.75" style="stroke:#181818;stroke-width:0.3499999999999999;" width="92.4" x="1103.2" y="595.0697"/><text fill="#000000" font-family="sans-serif" font-size="9.8" lengthAdjust="spacing" textLength="82.6" x="1108.1" y="610.5449">BuildingRepository</text><rect fill="#E2E2F0" height="22.8348" rx="1.75" ry="1.75" style="stroke:#181818;stroke-width:0.3499999999999999;" width="80.5" x="1202.6" y="16.5348"/><text fill="#000000" font-family="sans-serif" font-size="9.8" lengthAdjust="spacing" textLength="70.7" x="1207.5" y="32.01">FloorRepository</text><rect fill="#E2E2F0" height="22.8348" rx="1.75" ry="1.75" style="stroke:#181818;stroke-width:0.3499999999999999;" width="80.5" x="1202.6" y="595.0697"/><text fill="#000000" font-family="sans-serif" font-size="9.8" lengthAdjust="spacing" textLength="70.7" x="1207.5" y="610.5449">FloorRepository</text><rect fill="#E2E2F0" height="22.8348" rx="1.75" ry="1.75" style="stroke:#181818;stroke-width:0.3499999999999999;" width="43.4" x="1387.75" y="16.5348"/><text fill="#000000" font-family="sans-serif" font-size="9.8" lengthAdjust="spacing" textLength="33.6" x="1392.65" y="32.01">Mapper</text><rect fill="#E2E2F0" height="22.8348" rx="1.75" ry="1.75" style="stroke:#181818;stroke-width:0.3499999999999999;" width="43.4" x="1387.75" y="595.0697"/><text fill="#000000" font-family="sans-serif" font-size="9.8" lengthAdjust="spacing" textLength="33.6" x="1392.65" y="610.5449">Mapper</text><rect fill="#E2E2F0" height="22.8348" rx="1.75" ry="1.75" style="stroke:#181818;stroke-width:0.3499999999999999;" width="52.5" x="1438.15" y="16.5348"/><text fill="#000000" font-family="sans-serif" font-size="9.8" lengthAdjust="spacing" textLength="42.7" x="1443.05" y="32.01">Database</text><rect fill="#E2E2F0" height="22.8348" rx="1.75" ry="1.75" style="stroke:#181818;stroke-width:0.3499999999999999;" width="52.5" x="1438.15" y="595.0697"/><text fill="#000000" font-family="sans-serif" font-size="9.8" lengthAdjust="spacing" textLength="42.7" x="1443.05" y="610.5449">Database</text><rect fill="#FFFFFF" height="519.7965" style="stroke:#181818;stroke-width:0.6999999999999998;" width="7" x="259" y="63.3732"/><rect fill="#FFFFFF" height="475.9891" style="stroke:#181818;stroke-width:0.6999999999999998;" width="7" x="508.9" y="85.277"/><rect fill="#FFFFFF" height="432.1816" style="stroke:#181818;stroke-width:0.6999999999999998;" width="7" x="721.7" y="107.1807"/><rect fill="#FFFFFF" height="388.3742" style="stroke:#181818;stroke-width:0.6999999999999998;" width="7" x="934.5" y="129.0844"/><rect fill="#FFFFFF" height="109.5186" style="stroke:#181818;stroke-width:0.6999999999999998;" width="7" x="1145.9" y="150.9881"/><rect fill="#FFFFFF" height="109.5186" style="stroke:#181818;stroke-width:0.6999999999999998;" width="7" x="1239.35" y="318.7215"/><rect fill="#FFFFFF" height="21.9037" style="stroke:#181818;stroke-width:0.6999999999999998;" width="7" x="1405.95" y="216.6992"/><rect fill="#FFFFFF" height="21.9037" style="stroke:#181818;stroke-width:0.6999999999999998;" width="7" x="1405.95" y="384.4326"/><rect fill="#FFFFFF" height="21.9037" style="stroke:#181818;stroke-width:0.6999999999999998;" width="7" x="1460.9" y="172.8918"/><rect fill="#FFFFFF" height="21.9037" style="stroke:#181818;stroke-width:0.6999999999999998;" width="7" x="1460.9" y="340.6252"/><polygon fill="#181818" points="250.6,60.5732,257.6,63.3732,250.6,66.1732,253.4,63.3732" style="stroke:#181818;stroke-width:0.6999999999999998;"/><line style="stroke:#181818;stroke-width:0.6999999999999998;stroke-dasharray:2.0,2.0;" x1="0" x2="254.8" y1="63.3732" y2="63.3732"/><text fill="#000000" font-family="sans-serif" font-size="9.1" lengthAdjust="spacing" textLength="245.7" x="4.9" y="59.6894">Get request: "/api/building/getBuildingsByMaxAndMinFloors"</text><polygon fill="#181818" points="500.5,82.477,507.5,85.277,500.5,88.077,503.3,85.277" style="stroke:#181818;stroke-width:0.6999999999999998;"/><line style="stroke:#181818;stroke-width:0.6999999999999998;" x1="266" x2="504.7" y1="85.277" y2="85.277"/><text fill="#000000" font-family="sans-serif" font-size="9.1" lengthAdjust="spacing" textLength="229.6" x="270.9" y="81.5931">Route to "/api/building/getBuildingsByMaxAndMinFloors"</text><polygon fill="#181818" points="713.3,104.3807,720.3,107.1807,713.3,109.9807,716.1,107.1807" style="stroke:#181818;stroke-width:0.6999999999999998;"/><line style="stroke:#181818;stroke-width:0.6999999999999998;" x1="515.9" x2="717.5" y1="107.1807" y2="107.1807"/><text fill="#000000" font-family="sans-serif" font-size="9.1" lengthAdjust="spacing" textLength="192.5" x="520.8" y="103.4968">Call "getBuildingsByMaxAndMinFloors" method</text><polygon fill="#181818" points="926.1,126.2844,933.1,129.0844,926.1,131.8844,928.9,129.0844" style="stroke:#181818;stroke-width:0.6999999999999998;"/><line style="stroke:#181818;stroke-width:0.6999999999999998;" x1="728.7" x2="930.3" y1="129.0844" y2="129.0844"/><text fill="#000000" font-family="sans-serif" font-size="9.1" lengthAdjust="spacing" textLength="192.5" x="733.6" y="125.4005">Call "getBuildingsByMaxAndMinFloors" method</text><polygon fill="#181818" points="1137.5,148.1881,1144.5,150.9881,1137.5,153.7881,1140.3,150.9881" style="stroke:#181818;stroke-width:0.6999999999999998;"/><line style="stroke:#181818;stroke-width:0.6999999999999998;" x1="941.5" x2="1141.7" y1="150.9881" y2="150.9881"/><text fill="#000000" font-family="sans-serif" font-size="9.1" lengthAdjust="spacing" textLength="177.1" x="946.4" y="147.3042">Find all Building record using findAll method</text><polygon fill="#181818" points="1452.5,170.0918,1459.5,172.8918,1452.5,175.6918,1455.3,172.8918" style="stroke:#181818;stroke-width:0.6999999999999998;"/><line style="stroke:#181818;stroke-width:0.6999999999999998;" x1="1152.9" x2="1456.7" y1="172.8918" y2="172.8918"/><text fill="#000000" font-family="sans-serif" font-size="9.1" lengthAdjust="spacing" textLength="86.8" x="1157.8" y="169.2079">Contact the database</text><polygon fill="#181818" points="1160.6,191.9955,1153.6,194.7955,1160.6,197.5955,1157.8,194.7955" style="stroke:#181818;stroke-width:0.6999999999999998;"/><line style="stroke:#181818;stroke-width:0.6999999999999998;stroke-dasharray:2.0,2.0;" x1="1156.4" x2="1463.7" y1="194.7955" y2="194.7955"/><text fill="#000000" font-family="sans-serif" font-size="9.1" lengthAdjust="spacing" textLength="147" x="1164.8" y="191.1116">Return the Building records (if found)</text><polygon fill="#181818" points="1397.55,213.8992,1404.55,216.6992,1397.55,219.4992,1400.35,216.6992" style="stroke:#181818;stroke-width:0.6999999999999998;"/><line style="stroke:#181818;stroke-width:0.6999999999999998;" x1="1152.9" x2="1401.75" y1="216.6992" y2="216.6992"/><text fill="#000000" font-family="sans-serif" font-size="9.1" lengthAdjust="spacing" textLength="220.5" x="1157.8" y="213.0153">Map the Building records to Building to BuildingDTO(s)</text><polygon fill="#181818" points="1160.6,235.8029,1153.6,238.6029,1160.6,241.4029,1157.8,238.6029" style="stroke:#181818;stroke-width:0.6999999999999998;"/><line style="stroke:#181818;stroke-width:0.6999999999999998;" x1="1156.4" x2="1408.75" y1="238.6029" y2="238.6029"/><text fill="#000000" font-family="sans-serif" font-size="9.1" lengthAdjust="spacing" textLength="144.9" x="1164.8" y="234.919">Return the mapped Building records</text><polygon fill="#181818" points="949.2,257.7066,942.2,260.5066,949.2,263.3066,946.4,260.5066" style="stroke:#181818;stroke-width:0.6999999999999998;"/><line style="stroke:#181818;stroke-width:0.6999999999999998;stroke-dasharray:2.0,2.0;" x1="945" x2="1148.7" y1="260.5066" y2="260.5066"/><text fill="#000000" font-family="sans-serif" font-size="9.1" lengthAdjust="spacing" textLength="105.7" x="953.4" y="256.8228">Return the BuildingDTO(s)</text><polygon fill="#181818" points="1230.95,315.9215,1237.95,318.7215,1230.95,321.5215,1233.75,318.7215" style="stroke:#181818;stroke-width:0.6999999999999998;"/><line style="stroke:#181818;stroke-width:0.6999999999999998;" x1="941.5" x2="1235.15" y1="318.7215" y2="318.7215"/><text fill="#000000" font-family="sans-serif" font-size="9.1" lengthAdjust="spacing" textLength="159.6" x="946.4" y="278.7265">Iterates through the BuildingDTO(s) and</text><text fill="#000000" font-family="sans-serif" font-size="9.1" lengthAdjust="spacing" textLength="170.8" x="946.4" y="290.8302">finds the Floor records using the buildingId</text><text fill="#000000" font-family="sans-serif" font-size="9.1" lengthAdjust="spacing" textLength="167.3" x="946.4" y="302.9339">of the BuildingDTO as a parameter for the</text><text fill="#000000" font-family="sans-serif" font-size="9.1" lengthAdjust="spacing" textLength="185.5" x="946.4" y="315.0376">method findByBuildingId for each BuildingDTO</text><polygon fill="#181818" points="1452.5,337.8252,1459.5,340.6252,1452.5,343.4252,1455.3,340.6252" style="stroke:#181818;stroke-width:0.6999999999999998;"/><line style="stroke:#181818;stroke-width:0.6999999999999998;" x1="1246.35" x2="1456.7" y1="340.6252" y2="340.6252"/><text fill="#000000" font-family="sans-serif" font-size="9.1" lengthAdjust="spacing" textLength="86.8" x="1251.25" y="336.9413">Contact the database</text><polygon fill="#181818" points="1254.05,359.7289,1247.05,362.5289,1254.05,365.3289,1251.25,362.5289" style="stroke:#181818;stroke-width:0.6999999999999998;"/><line style="stroke:#181818;stroke-width:0.6999999999999998;stroke-dasharray:2.0,2.0;" x1="1249.85" x2="1463.7" y1="362.5289" y2="362.5289"/><text fill="#000000" font-family="sans-serif" font-size="9.1" lengthAdjust="spacing" textLength="135.1" x="1258.25" y="358.845">Return the Floor records (if found)</text><polygon fill="#181818" points="1397.55,381.6326,1404.55,384.4326,1397.55,387.2326,1400.35,384.4326" style="stroke:#181818;stroke-width:0.6999999999999998;"/><line style="stroke:#181818;stroke-width:0.6999999999999998;" x1="1246.35" x2="1401.75" y1="384.4326" y2="384.4326"/><text fill="#000000" font-family="sans-serif" font-size="9.1" lengthAdjust="spacing" textLength="146.3" x="1251.25" y="380.7487">Map the Floor record to FloorDTO(s)</text><polygon fill="#181818" points="1254.05,403.5363,1247.05,406.3363,1254.05,409.1363,1251.25,406.3363" style="stroke:#181818;stroke-width:0.6999999999999998;"/><line style="stroke:#181818;stroke-width:0.6999999999999998;" x1="1249.85" x2="1408.75" y1="406.3363" y2="406.3363"/><text fill="#000000" font-family="sans-serif" font-size="9.1" lengthAdjust="spacing" textLength="133" x="1258.25" y="402.6524">Return the mapped Floor records</text><polygon fill="#181818" points="949.2,425.44,942.2,428.24,949.2,431.04,946.4,428.24" style="stroke:#181818;stroke-width:0.6999999999999998;"/><line style="stroke:#181818;stroke-width:0.6999999999999998;stroke-dasharray:2.0,2.0;" x1="945" x2="1242.15" y1="428.24" y2="428.24"/><text fill="#000000" font-family="sans-serif" font-size="9.1" lengthAdjust="spacing" textLength="93.8" x="953.4" y="424.5562">Return the FloorDTO(s)</text><line style="stroke:#181818;stroke-width:0.6999999999999998;stroke-dasharray:2.0,2.0;" x1="941.5" x2="970.9" y1="486.4549" y2="486.4549"/><line style="stroke:#181818;stroke-width:0.6999999999999998;stroke-dasharray:2.0,2.0;" x1="970.9" x2="970.9" y1="486.4549" y2="495.5549"/><line style="stroke:#181818;stroke-width:0.6999999999999998;stroke-dasharray:2.0,2.0;" x1="942.2" x2="970.9" y1="495.5549" y2="495.5549"/><polygon fill="#181818" points="949.2,492.7549,942.2,495.5549,949.2,498.3549,946.4,495.5549" style="stroke:#181818;stroke-width:0.6999999999999998;"/><text fill="#000000" font-family="sans-serif" font-size="9.1" lengthAdjust="spacing" textLength="170.1" x="946.4" y="446.4599">Checks if the number of Floors is between</text><text fill="#000000" font-family="sans-serif" font-size="9.1" lengthAdjust="spacing" textLength="179.9" x="946.4" y="458.5636">the max and min defined in the request body</text><text fill="#000000" font-family="sans-serif" font-size="9.1" lengthAdjust="spacing" textLength="189" x="949.2" y="470.6673">for each BluindingDTO. If it is, the BuildingDTO</text><text fill="#000000" font-family="sans-serif" font-size="9.1" lengthAdjust="spacing" textLength="140.7" x="946.4" y="482.771">is added to a list of BuildingDTO(s)</text><polygon fill="#181818" points="736.4,514.6586,729.4,517.4586,736.4,520.2586,733.6,517.4586" style="stroke:#181818;stroke-width:0.6999999999999998;"/><line style="stroke:#181818;stroke-width:0.6999999999999998;stroke-dasharray:2.0,2.0;" x1="732.2" x2="937.3" y1="517.4586" y2="517.4586"/><text fill="#000000" font-family="sans-serif" font-size="9.1" lengthAdjust="spacing" textLength="130.2" x="740.6" y="513.7747">Return the list of BuildingDTO(s)</text><polygon fill="#181818" points="523.6,536.5623,516.6,539.3623,523.6,542.1623,520.8,539.3623" style="stroke:#181818;stroke-width:0.6999999999999998;"/><line style="stroke:#181818;stroke-width:0.6999999999999998;stroke-dasharray:2.0,2.0;" x1="519.4" x2="724.5" y1="539.3623" y2="539.3623"/><text fill="#000000" font-family="sans-serif" font-size="9.1" lengthAdjust="spacing" textLength="130.2" x="527.8" y="535.6784">Return the list of BuildingDTO(s)</text><polygon fill="#181818" points="273.7,558.466,266.7,561.266,273.7,564.066,270.9,561.266" style="stroke:#181818;stroke-width:0.6999999999999998;"/><line style="stroke:#181818;stroke-width:0.6999999999999998;stroke-dasharray:2.0,2.0;" x1="269.5" x2="511.7" y1="561.266" y2="561.266"/><text fill="#000000" font-family="sans-serif" font-size="9.1" lengthAdjust="spacing" textLength="162.4" x="277.9" y="557.5821">Return the list of BuildingDTO(s) (JSON)</text><polygon fill="#181818" points="7.7,580.3697,0.7,583.1697,7.7,585.9697,4.9,583.1697" style="stroke:#181818;stroke-width:0.6999999999999998;"/><line style="stroke:#181818;stroke-width:0.6999999999999998;stroke-dasharray:2.0,2.0;" x1="3.5" x2="261.8" y1="583.1697" y2="583.1697"/><text fill="#000000" font-family="sans-serif" font-size="9.1" lengthAdjust="spacing" textLength="197.4" x="11.9" y="579.4858">Return response: BuildingDTO(s) in JSON format</text><!--SRC=[dPLDRnen48Rl_8eH9oALSEa9HP6oq8seHAa8lN4nU02hk_RMzgRXttV6Ni3BHwBcvcLc7e_dVMqgORrQgqfe3zs7Xv7HNYYD5aPV7n-NUYJAgdOm5LfiiKJjko0SpCVFdIejd9lQAxsDmTclHJlAK6kA0cr862tcxVWBsbUrnX3aTJkQrQgG19zZPPponkv3OZR_zdFMpimBO-nPMdwPDXLLrRGIb-tmM7Yn4YwsCyuw_VuZ7nY6y8mUBFwfqVaXT0UYKeDLqznWY_xGgClsK_7sfELKwT2IwtR4sgjNuJ6CZcaCfK4HbMU7uCsdYJplm28cpPQG8r4Kq7qV02NwdP4d3il2vKHX4JwB2G860862I4JAbPR0j0E9vhWsLaBj-6D3uIUAdhEYnX52j776JR53rnxy3a4sKfqgI2_AwYTRpz7NLeVqiyqTzDG6DgRMyguZCMKSjum68GmjhZD8kEDloNgycFNStQcnncaDxtf_9GVbnHPfRmscwUyarPLJDXqanN6S1stofe69HqjHEidEcdgxkm81GV8jDSlaGZY8Vnn1595_FvXtmkbcSuxY6oM0RfiWfMaC6u9mob97vOCHidrsed067M2NKav3ZPSx_vG_yilvjqzrqnpvJNEa03P3-FxG2VbD9xGQkcA3_1qRf7idbNdYWUIcxt3zsu6AYkcwN55hf5-yvA0ShD3_HTGaLUplBNYYL1eaachKh8hxDWyah8pSKtQYO56Jkb72UvXiG7a2Vxdmo5BJTa9A32CKK2YYKIzdlZuU8JvvoSbl52H326zKUEkIP_X_0FnMnYVt-EVmOJtqlh_CVhGmuUb-wFSPSIHOT9NH3eVdzJHW9l14I-5RdF7pFm00]--></g></svg>