<?xml version="1.0" encoding="UTF-8" standalone="no"?><svg xmlns="http://www.w3.org/2000/svg" xmlns:xlink="http://www.w3.org/1999/xlink" contentStyleType="text/css" height="288px" preserveAspectRatio="none" style="width:360px;height:288px;background:#FFFFFF;" version="1.1" viewBox="0 0 360 288" width="360px" zoomAndPan="magnify"><defs/><g><rect fill="#FFFFFF" height="105.0547" style="stroke:#181818;stroke-width:1.0;" width="10" x="49" y="92.6094"/><rect fill="#FFFFFF" height="73.7031" style="stroke:#181818;stroke-width:1.0;" width="10" x="251" y="114.9609"/><line style="stroke:#181818;stroke-width:0.5;stroke-dasharray:5.0,5.0;" x1="54" x2="54" y1="82.6094" y2="206.6641"/><line style="stroke:#181818;stroke-width:0.5;stroke-dasharray:5.0,5.0;" x1="256" x2="256" y1="82.6094" y2="206.6641"/><text fill="#000000" font-family="sans-serif" font-size="14" lengthAdjust="spacing" textLength="92" x="5" y="79.5332">Fleet Manager</text><ellipse cx="54" cy="13.5" fill="#E2E2F0" rx="8" ry="8" style="stroke:#181818;stroke-width:0.5;"/><path d="M54,21.5 L54,48.5 M41,29.5 L67,29.5 M54,48.5 L41,63.5 M54,48.5 L67,63.5 " fill="none" style="stroke:#181818;stroke-width:0.5;"/><text fill="#000000" font-family="sans-serif" font-size="14" lengthAdjust="spacing" textLength="92" x="5" y="220.1973">Fleet Manager</text><ellipse cx="54" cy="231.7734" fill="#E2E2F0" rx="8" ry="8" style="stroke:#181818;stroke-width:0.5;"/><path d="M54,239.7734 L54,266.7734 M41,247.7734 L67,247.7734 M54,266.7734 L41,281.7734 M54,266.7734 L67,281.7734 " fill="none" style="stroke:#181818;stroke-width:0.5;"/><rect fill="#E2E2F0" height="49.2188" rx="2.5" ry="2.5" style="stroke:#181818;stroke-width:0.5;" width="114" x="199" y="32.3906"/><text fill="#000000" font-family="sans-serif" font-size="14" lengthAdjust="spacing" textLength="100" x="206" y="53.9238">&lt;&lt;System C4&gt;&gt;</text><text fill="#000000" font-family="sans-serif" font-size="14" lengthAdjust="spacing" textLength="84" x="214" y="71.5332">RobDroneGo</text><rect fill="#E2E2F0" height="49.2188" rx="2.5" ry="2.5" style="stroke:#181818;stroke-width:0.5;" width="114" x="199" y="205.6641"/><text fill="#000000" font-family="sans-serif" font-size="14" lengthAdjust="spacing" textLength="100" x="206" y="227.1973">&lt;&lt;System C4&gt;&gt;</text><text fill="#000000" font-family="sans-serif" font-size="14" lengthAdjust="spacing" textLength="84" x="214" y="244.8066">RobDroneGo</text><rect fill="#FFFFFF" height="105.0547" style="stroke:#181818;stroke-width:1.0;" width="10" x="49" y="92.6094"/><rect fill="#FFFFFF" height="73.7031" style="stroke:#181818;stroke-width:1.0;" width="10" x="251" y="114.9609"/><polygon fill="#181818" points="239,110.9609,249,114.9609,239,118.9609,243,114.9609" style="stroke:#181818;stroke-width:1.0;"/><line style="stroke:#181818;stroke-width:1.0;" x1="59" x2="245" y1="114.9609" y2="114.9609"/><text fill="#000000" font-family="sans-serif" font-size="13" lengthAdjust="spacing" textLength="173" x="66" y="110.1045">Requests to consult all robots</text><line style="stroke:#181818;stroke-width:1.0;" x1="261" x2="303" y1="145.3125" y2="145.3125"/><line style="stroke:#181818;stroke-width:1.0;" x1="303" x2="303" y1="145.3125" y2="158.3125"/><line style="stroke:#181818;stroke-width:1.0;" x1="262" x2="303" y1="158.3125" y2="158.3125"/><polygon fill="#181818" points="272,154.3125,262,158.3125,272,162.3125,268,158.3125" style="stroke:#181818;stroke-width:1.0;"/><text fill="#000000" font-family="sans-serif" font-size="13" lengthAdjust="spacing" textLength="85" x="268" y="140.4561">Gets all robots</text><polygon fill="#181818" points="70,184.6641,60,188.6641,70,192.6641,66,188.6641" style="stroke:#181818;stroke-width:1.0;"/><line style="stroke:#181818;stroke-width:1.0;stroke-dasharray:2.0,2.0;" x1="64" x2="255" y1="188.6641" y2="188.6641"/><text fill="#000000" font-family="sans-serif" font-size="13" lengthAdjust="spacing" textLength="96" x="76" y="183.8076">Shows all robots</text><!--MD5=[57a02c61cf76201e0abec2f4c8103efd]
@startuml

actor "Fleet Manager" as FM
participant "<<System C4>>\nRobDroneGo" as RDG

activate FM

FM -> RDG: Requests to consult all robots
activate RDG
RDG -> RDG: Gets all robots
RDG - -> FM: Shows all robots
deactivate RDG


@enduml

PlantUML version 1.2022.7(Mon Aug 22 18:01:30 WEST 2022)
(GPL source distribution)
Java Runtime: OpenJDK Runtime Environment
JVM: OpenJDK 64-Bit Server VM
Default Encoding: UTF-8
Language: en
Country: US
--></g></svg>