<?xml version="1.0" encoding="us-ascii" standalone="no"?><svg xmlns="http://www.w3.org/2000/svg" xmlns:xlink="http://www.w3.org/1999/xlink" contentStyleType="text/css" height="573.6px" preserveAspectRatio="none" style="width:1083px;height:573px;background:#FFFFFF;" version="1.1" viewBox="0 0 1083 573" width="1083.6px" zoomAndPan="magnify"><defs/><g><rect fill="#FFFFFF" height="474.9398" style="stroke:#181818;stroke-width:0.6;" width="6" x="168" y="54.3199"/><rect fill="#FFFFFF" height="437.3906" style="stroke:#181818;stroke-width:0.6;" width="6" x="294" y="73.0945"/><rect fill="#FFFFFF" height="399.8414" style="stroke:#181818;stroke-width:0.6;" width="6" x="400.2" y="91.8691"/><rect fill="#FFFFFF" height="351.9176" style="stroke:#181818;stroke-width:0.6;" width="6" x="518.4" y="121.0184"/><rect fill="#FFFFFF" height="56.3238" style="stroke:#181818;stroke-width:0.6;" width="6" x="759" y="214.8914"/><rect fill="#FFFFFF" height="93.873" style="stroke:#181818;stroke-width:0.6;" width="6" x="759" y="360.2883"/><rect fill="#FFFFFF" height="41.1492" style="stroke:#181818;stroke-width:0.6;" width="6" x="813.6" y="289.9898"/><rect fill="#FFFFFF" height="56.3238" style="stroke:#181818;stroke-width:0.6;" width="6" x="873.3" y="139.793"/><rect fill="#FFFFFF" height="18.7746" style="stroke:#181818;stroke-width:0.6;" width="6" x="1011.3" y="158.5676"/><rect fill="#FFFFFF" height="18.7746" style="stroke:#181818;stroke-width:0.6;" width="6" x="1011.3" y="233.666"/><rect fill="#FFFFFF" height="18.7746" style="stroke:#181818;stroke-width:0.6;" width="6" x="1011.3" y="416.6121"/><rect fill="#FFFFFF" height="18.7746" style="stroke:#181818;stroke-width:0.6;" width="6" x="1058.4" y="379.0629"/><line style="stroke:#181818;stroke-width:0.3;stroke-dasharray:5.0,5.0;" x1="171" x2="171" y1="34.3453" y2="540.0598"/><line style="stroke:#181818;stroke-width:0.3;stroke-dasharray:5.0,5.0;" x1="296.7" x2="296.7" y1="34.3453" y2="540.0598"/><line style="stroke:#181818;stroke-width:0.3;stroke-dasharray:5.0,5.0;" x1="403.2" x2="403.2" y1="34.3453" y2="540.0598"/><line style="stroke:#181818;stroke-width:0.3;stroke-dasharray:5.0,5.0;" x1="521.1" x2="521.1" y1="34.3453" y2="540.0598"/><line style="stroke:#181818;stroke-width:0.3;stroke-dasharray:5.0,5.0;" x1="761.7" x2="761.7" y1="34.3453" y2="540.0598"/><line style="stroke:#181818;stroke-width:0.3;stroke-dasharray:5.0,5.0;" x1="816.3" x2="816.3" y1="34.3453" y2="540.0598"/><line style="stroke:#181818;stroke-width:0.3;stroke-dasharray:5.0,5.0;" x1="876.3" x2="876.3" y1="34.3453" y2="540.0598"/><line style="stroke:#181818;stroke-width:0.3;stroke-dasharray:5.0,5.0;" x1="1014" x2="1014" y1="34.3453" y2="540.0598"/><line style="stroke:#181818;stroke-width:0.3;stroke-dasharray:5.0,5.0;" x1="1061.4" x2="1061.4" y1="34.3453" y2="540.0598"/><rect fill="#E2E2F0" height="30.7453" rx="1.5" ry="1.5" style="stroke:#181818;stroke-width:0.3;" width="115.2" x="113.4" y="3"/><text fill="#000000" font-family="sans-serif" font-size="8.4" lengthAdjust="spacing" textLength="60" x="141" y="16.2645">&#171;Container C4&#187;</text><text fill="#000000" font-family="sans-serif" font-size="8.4" lengthAdjust="spacing" textLength="106.8" x="117.6" y="27.4371">Fleet+Campus Management</text><rect fill="#E2E2F0" height="30.7453" rx="1.5" ry="1.5" style="stroke:#181818;stroke-width:0.3;" width="115.2" x="113.4" y="539.4598"/><text fill="#000000" font-family="sans-serif" font-size="8.4" lengthAdjust="spacing" textLength="60" x="141" y="552.7242">&#171;Container C4&#187;</text><text fill="#000000" font-family="sans-serif" font-size="8.4" lengthAdjust="spacing" textLength="106.8" x="117.6" y="563.8969">Fleet+Campus Management</text><rect fill="#E2E2F0" height="19.5727" rx="1.5" ry="1.5" style="stroke:#181818;stroke-width:0.3;" width="37.8" x="278.1" y="14.1727"/><text fill="#000000" font-family="sans-serif" font-size="8.4" lengthAdjust="spacing" textLength="29.4" x="282.3" y="27.4371">Routing</text><rect fill="#E2E2F0" height="19.5727" rx="1.5" ry="1.5" style="stroke:#181818;stroke-width:0.3;" width="37.8" x="278.1" y="539.4598"/><text fill="#000000" font-family="sans-serif" font-size="8.4" lengthAdjust="spacing" textLength="29.4" x="282.3" y="552.7242">Routing</text><rect fill="#E2E2F0" height="19.5727" rx="1.5" ry="1.5" style="stroke:#181818;stroke-width:0.3;" width="45.6" x="380.4" y="14.1727"/><text fill="#000000" font-family="sans-serif" font-size="8.4" lengthAdjust="spacing" textLength="37.2" x="384.6" y="27.4371">Controller</text><rect fill="#E2E2F0" height="19.5727" rx="1.5" ry="1.5" style="stroke:#181818;stroke-width:0.3;" width="45.6" x="380.4" y="539.4598"/><text fill="#000000" font-family="sans-serif" font-size="8.4" lengthAdjust="spacing" textLength="37.2" x="384.6" y="552.7242">Controller</text><rect fill="#E2E2F0" height="19.5727" rx="1.5" ry="1.5" style="stroke:#181818;stroke-width:0.3;" width="36.6" x="503.1" y="14.1727"/><text fill="#000000" font-family="sans-serif" font-size="8.4" lengthAdjust="spacing" textLength="28.2" x="507.3" y="27.4371">Service</text><rect fill="#E2E2F0" height="19.5727" rx="1.5" ry="1.5" style="stroke:#181818;stroke-width:0.3;" width="36.6" x="503.1" y="539.4598"/><text fill="#000000" font-family="sans-serif" font-size="8.4" lengthAdjust="spacing" textLength="28.2" x="507.3" y="552.7242">Service</text><rect fill="#E2E2F0" height="19.5727" rx="1.5" ry="1.5" style="stroke:#181818;stroke-width:0.3;" width="69" x="727.5" y="14.1727"/><text fill="#000000" font-family="sans-serif" font-size="8.4" lengthAdjust="spacing" textLength="60.6" x="731.7" y="27.4371">FloorRepository</text><rect fill="#E2E2F0" height="19.5727" rx="1.5" ry="1.5" style="stroke:#181818;stroke-width:0.3;" width="69" x="727.5" y="539.4598"/><text fill="#000000" font-family="sans-serif" font-size="8.4" lengthAdjust="spacing" textLength="60.6" x="731.7" y="552.7242">FloorRepository</text><rect fill="#E2E2F0" height="19.5727" rx="1.5" ry="1.5" style="stroke:#181818;stroke-width:0.3;" width="28.2" x="802.5" y="14.1727"/><text fill="#000000" font-family="sans-serif" font-size="8.4" lengthAdjust="spacing" textLength="19.8" x="806.7" y="27.4371">Floor</text><rect fill="#E2E2F0" height="19.5727" rx="1.5" ry="1.5" style="stroke:#181818;stroke-width:0.3;" width="28.2" x="802.5" y="539.4598"/><text fill="#000000" font-family="sans-serif" font-size="8.4" lengthAdjust="spacing" textLength="19.8" x="806.7" y="552.7242">Floor</text><rect fill="#E2E2F0" height="19.5727" rx="1.5" ry="1.5" style="stroke:#181818;stroke-width:0.3;" width="79.2" x="836.7" y="14.1727"/><text fill="#000000" font-family="sans-serif" font-size="8.4" lengthAdjust="spacing" textLength="70.8" x="840.9" y="27.4371">BuildingRepository</text><rect fill="#E2E2F0" height="19.5727" rx="1.5" ry="1.5" style="stroke:#181818;stroke-width:0.3;" width="79.2" x="836.7" y="539.4598"/><text fill="#000000" font-family="sans-serif" font-size="8.4" lengthAdjust="spacing" textLength="70.8" x="840.9" y="552.7242">BuildingRepository</text><rect fill="#E2E2F0" height="19.5727" rx="1.5" ry="1.5" style="stroke:#181818;stroke-width:0.3;" width="45" x="991.8" y="14.1727"/><text fill="#000000" font-family="sans-serif" font-size="8.4" lengthAdjust="spacing" textLength="36.6" x="996" y="27.4371">Database</text><rect fill="#E2E2F0" height="19.5727" rx="1.5" ry="1.5" style="stroke:#181818;stroke-width:0.3;" width="45" x="991.8" y="539.4598"/><text fill="#000000" font-family="sans-serif" font-size="8.4" lengthAdjust="spacing" textLength="36.6" x="996" y="552.7242">Database</text><rect fill="#E2E2F0" height="19.5727" rx="1.5" ry="1.5" style="stroke:#181818;stroke-width:0.3;" width="37.2" x="1042.8" y="14.1727"/><text fill="#000000" font-family="sans-serif" font-size="8.4" lengthAdjust="spacing" textLength="28.8" x="1047" y="27.4371">Mapper</text><rect fill="#E2E2F0" height="19.5727" rx="1.5" ry="1.5" style="stroke:#181818;stroke-width:0.3;" width="37.2" x="1042.8" y="539.4598"/><text fill="#000000" font-family="sans-serif" font-size="8.4" lengthAdjust="spacing" textLength="28.8" x="1047" y="552.7242">Mapper</text><rect fill="#FFFFFF" height="474.9398" style="stroke:#181818;stroke-width:0.6;" width="6" x="168" y="54.3199"/><rect fill="#FFFFFF" height="437.3906" style="stroke:#181818;stroke-width:0.6;" width="6" x="294" y="73.0945"/><rect fill="#FFFFFF" height="399.8414" style="stroke:#181818;stroke-width:0.6;" width="6" x="400.2" y="91.8691"/><rect fill="#FFFFFF" height="351.9176" style="stroke:#181818;stroke-width:0.6;" width="6" x="518.4" y="121.0184"/><rect fill="#FFFFFF" height="56.3238" style="stroke:#181818;stroke-width:0.6;" width="6" x="759" y="214.8914"/><rect fill="#FFFFFF" height="93.873" style="stroke:#181818;stroke-width:0.6;" width="6" x="759" y="360.2883"/><rect fill="#FFFFFF" height="41.1492" style="stroke:#181818;stroke-width:0.6;" width="6" x="813.6" y="289.9898"/><rect fill="#FFFFFF" height="56.3238" style="stroke:#181818;stroke-width:0.6;" width="6" x="873.3" y="139.793"/><rect fill="#FFFFFF" height="18.7746" style="stroke:#181818;stroke-width:0.6;" width="6" x="1011.3" y="158.5676"/><rect fill="#FFFFFF" height="18.7746" style="stroke:#181818;stroke-width:0.6;" width="6" x="1011.3" y="233.666"/><rect fill="#FFFFFF" height="18.7746" style="stroke:#181818;stroke-width:0.6;" width="6" x="1011.3" y="416.6121"/><rect fill="#FFFFFF" height="18.7746" style="stroke:#181818;stroke-width:0.6;" width="6" x="1058.4" y="379.0629"/><polygon fill="#181818" points="160.8,51.9199,166.8,54.3199,160.8,56.7199,163.2,54.3199" style="stroke:#181818;stroke-width:0.6;"/><line style="stroke:#181818;stroke-width:0.6;stroke-dasharray:2.0,2.0;" x1="0" x2="164.4" y1="54.3199" y2="54.3199"/><text fill="#000000" font-family="sans-serif" font-size="7.8" lengthAdjust="spacing" textLength="108.6" x="4.2" y="51.1623">Post request: "/api/floor/create"</text><polygon fill="#181818" points="286.8,70.6945,292.8,73.0945,286.8,75.4945,289.2,73.0945" style="stroke:#181818;stroke-width:0.6;"/><line style="stroke:#181818;stroke-width:0.6;" x1="174" x2="290.4" y1="73.0945" y2="73.0945"/><text fill="#000000" font-family="sans-serif" font-size="7.8" lengthAdjust="spacing" textLength="91.2" x="178.2" y="69.9369">Route to "/api/floor/create"</text><polygon fill="#181818" points="393,89.4691,399,91.8691,393,94.2691,395.4,91.8691" style="stroke:#181818;stroke-width:0.6;"/><line style="stroke:#181818;stroke-width:0.6;" x1="300" x2="396.6" y1="91.8691" y2="91.8691"/><text fill="#000000" font-family="sans-serif" font-size="7.8" lengthAdjust="spacing" textLength="88.8" x="304.2" y="88.7115">Call "createFloor" method</text><polygon fill="#181818" points="511.2,118.6184,517.2,121.0184,511.2,123.4184,513.6,121.0184" style="stroke:#181818;stroke-width:0.6;"/><line style="stroke:#181818;stroke-width:0.6;" x1="406.2" x2="514.8" y1="121.0184" y2="121.0184"/><text fill="#000000" font-family="sans-serif" font-size="7.8" lengthAdjust="spacing" textLength="88.8" x="410.4" y="107.4861">Call "createFloor" method</text><text fill="#000000" font-family="sans-serif" font-size="7.8" lengthAdjust="spacing" textLength="100.8" x="410.4" y="117.8607">(Using request body as DTO)</text><polygon fill="#181818" points="866.1,137.393,872.1,139.793,866.1,142.193,868.5,139.793" style="stroke:#181818;stroke-width:0.6;"/><line style="stroke:#181818;stroke-width:0.6;" x1="524.4" x2="869.7" y1="139.793" y2="139.793"/><text fill="#000000" font-family="sans-serif" font-size="7.8" lengthAdjust="spacing" textLength="189" x="528.6" y="136.6354">Verify if the Floor's building exists using exists method</text><polygon fill="#181818" points="1004.1,156.1676,1010.1,158.5676,1004.1,160.9676,1006.5,158.5676" style="stroke:#181818;stroke-width:0.6;"/><line style="stroke:#181818;stroke-width:0.6;" x1="879.3" x2="1007.7" y1="158.5676" y2="158.5676"/><text fill="#000000" font-family="sans-serif" font-size="7.8" lengthAdjust="spacing" textLength="75.6" x="883.5" y="155.41">Contact the Database</text><polygon fill="#181818" points="885.9,174.9422,879.9,177.3422,885.9,179.7422,883.5,177.3422" style="stroke:#181818;stroke-width:0.6;"/><line style="stroke:#181818;stroke-width:0.6;stroke-dasharray:2.0,2.0;" x1="882.3" x2="1013.7" y1="177.3422" y2="177.3422"/><text fill="#000000" font-family="sans-serif" font-size="7.8" lengthAdjust="spacing" textLength="117.6" x="889.5" y="174.1846">Return the result of the verification</text><polygon fill="#181818" points="531,193.7168,525,196.1168,531,198.5168,528.6,196.1168" style="stroke:#181818;stroke-width:0.6;"/><line style="stroke:#181818;stroke-width:0.6;" x1="527.4" x2="875.7" y1="196.1168" y2="196.1168"/><text fill="#000000" font-family="sans-serif" font-size="7.8" lengthAdjust="spacing" textLength="207" x="534.6" y="192.9592">Return the result of the verification (if error, end the process)</text><polygon fill="#181818" points="751.8,212.4914,757.8,214.8914,751.8,217.2914,754.2,214.8914" style="stroke:#181818;stroke-width:0.6;"/><line style="stroke:#181818;stroke-width:0.6;" x1="524.4" x2="755.4" y1="214.8914" y2="214.8914"/><text fill="#000000" font-family="sans-serif" font-size="7.8" lengthAdjust="spacing" textLength="223.2" x="528.6" y="211.7338">Verify if the Floor's Building Id has a Floor with the same number</text><polygon fill="#181818" points="1004.1,231.266,1010.1,233.666,1004.1,236.066,1006.5,233.666" style="stroke:#181818;stroke-width:0.6;"/><line style="stroke:#181818;stroke-width:0.6;" x1="765" x2="1007.7" y1="233.666" y2="233.666"/><text fill="#000000" font-family="sans-serif" font-size="7.8" lengthAdjust="spacing" textLength="75.6" x="769.2" y="230.5084">Contact the Database</text><polygon fill="#181818" points="771.6,250.0406,765.6,252.4406,771.6,254.8406,769.2,252.4406" style="stroke:#181818;stroke-width:0.6;"/><line style="stroke:#181818;stroke-width:0.6;stroke-dasharray:2.0,2.0;" x1="768" x2="1013.7" y1="252.4406" y2="252.4406"/><text fill="#000000" font-family="sans-serif" font-size="7.8" lengthAdjust="spacing" textLength="117.6" x="775.2" y="249.283">Return the result of the verification</text><polygon fill="#181818" points="531,268.8152,525,271.2152,531,273.6152,528.6,271.2152" style="stroke:#181818;stroke-width:0.6;"/><line style="stroke:#181818;stroke-width:0.6;" x1="527.4" x2="761.4" y1="271.2152" y2="271.2152"/><text fill="#000000" font-family="sans-serif" font-size="7.8" lengthAdjust="spacing" textLength="207" x="534.6" y="268.0576">Return the result of the verification (if error, end the process)</text><polygon fill="#181818" points="806.4,287.5898,812.4,289.9898,806.4,292.3898,808.8,289.9898" style="stroke:#181818;stroke-width:0.6;"/><line style="stroke:#181818;stroke-width:0.6;" x1="524.4" x2="810" y1="289.9898" y2="289.9898"/><text fill="#000000" font-family="sans-serif" font-size="7.8" lengthAdjust="spacing" textLength="65.4" x="528.6" y="286.8322">Create a new Floor</text><path d="M657,297.7898 L657,313.9898 L810.6,313.9898 L810.6,303.7898 L804.6,297.7898 L657,297.7898 " fill="#FEFFDD" style="stroke:#181818;stroke-width:0.3;"/><path d="M804.6,297.7898 L804.6,303.7898 L810.6,303.7898 L804.6,297.7898 " fill="#FEFFDD" style="stroke:#181818;stroke-width:0.3;"/><text fill="#000000" font-family="sans-serif" font-size="7.8" lengthAdjust="spacing" textLength="141" x="660.6" y="309.2068">Does the necessary parameter validation</text><polygon fill="#181818" points="531,328.7391,525,331.1391,531,333.5391,528.6,331.1391" style="stroke:#181818;stroke-width:0.6;"/><line style="stroke:#181818;stroke-width:0.6;" x1="527.4" x2="816" y1="331.1391" y2="331.1391"/><text fill="#000000" font-family="sans-serif" font-size="7.8" lengthAdjust="spacing" textLength="84" x="534.6" y="327.9814">Return the created Floor</text><polygon fill="#181818" points="751.8,357.8883,757.8,360.2883,751.8,362.6883,754.2,360.2883" style="stroke:#181818;stroke-width:0.6;"/><line style="stroke:#181818;stroke-width:0.6;" x1="524.4" x2="755.4" y1="360.2883" y2="360.2883"/><text fill="#000000" font-family="sans-serif" font-size="7.8" lengthAdjust="spacing" textLength="65.4" x="528.6" y="346.7561">Call "save" method</text><text fill="#000000" font-family="sans-serif" font-size="7.8" lengthAdjust="spacing" textLength="85.8" x="528.6" y="357.1307">(Using the created Floor)</text><polygon fill="#181818" points="1051.2,376.6629,1057.2,379.0629,1051.2,381.4629,1053.6,379.0629" style="stroke:#181818;stroke-width:0.6;"/><line style="stroke:#181818;stroke-width:0.6;" x1="765" x2="1054.8" y1="379.0629" y2="379.0629"/><text fill="#000000" font-family="sans-serif" font-size="7.8" lengthAdjust="spacing" textLength="140.4" x="769.2" y="375.9053">Map the Floor to persistence data model</text><polygon fill="#181818" points="771.6,395.4375,765.6,397.8375,771.6,400.2375,769.2,397.8375" style="stroke:#181818;stroke-width:0.6;"/><line style="stroke:#181818;stroke-width:0.6;" x1="768" x2="1060.8" y1="397.8375" y2="397.8375"/><text fill="#000000" font-family="sans-serif" font-size="7.8" lengthAdjust="spacing" textLength="85.8" x="775.2" y="394.6799">Return the mapped Floor</text><polygon fill="#181818" points="1004.1,414.2121,1010.1,416.6121,1004.1,419.0121,1006.5,416.6121" style="stroke:#181818;stroke-width:0.6;"/><line style="stroke:#181818;stroke-width:0.6;" x1="765" x2="1007.7" y1="416.6121" y2="416.6121"/><text fill="#000000" font-family="sans-serif" font-size="7.8" lengthAdjust="spacing" textLength="49.8" x="769.2" y="413.4545">Save the Floor</text><polygon fill="#181818" points="771.6,432.9867,765.6,435.3867,771.6,437.7867,769.2,435.3867" style="stroke:#181818;stroke-width:0.6;"/><line style="stroke:#181818;stroke-width:0.6;stroke-dasharray:2.0,2.0;" x1="768" x2="1013.7" y1="435.3867" y2="435.3867"/><text fill="#000000" font-family="sans-serif" font-size="7.8" lengthAdjust="spacing" textLength="78" x="775.2" y="432.2291">Return the saved Floor</text><polygon fill="#181818" points="531,451.7613,525,454.1613,531,456.5613,528.6,454.1613" style="stroke:#181818;stroke-width:0.6;"/><line style="stroke:#181818;stroke-width:0.6;stroke-dasharray:2.0,2.0;" x1="527.4" x2="761.4" y1="454.1613" y2="454.1613"/><text fill="#000000" font-family="sans-serif" font-size="7.8" lengthAdjust="spacing" textLength="78" x="534.6" y="451.0037">Return the saved Floor</text><polygon fill="#181818" points="412.8,470.5359,406.8,472.9359,412.8,475.3359,410.4,472.9359" style="stroke:#181818;stroke-width:0.6;"/><line style="stroke:#181818;stroke-width:0.6;stroke-dasharray:2.0,2.0;" x1="409.2" x2="520.8" y1="472.9359" y2="472.9359"/><text fill="#000000" font-family="sans-serif" font-size="7.8" lengthAdjust="spacing" textLength="78" x="416.4" y="469.7783">Return the saved Floor</text><polygon fill="#181818" points="306.6,489.3105,300.6,491.7105,306.6,494.1105,304.2,491.7105" style="stroke:#181818;stroke-width:0.6;"/><line style="stroke:#181818;stroke-width:0.6;stroke-dasharray:2.0,2.0;" x1="303" x2="402.6" y1="491.7105" y2="491.7105"/><text fill="#000000" font-family="sans-serif" font-size="7.8" lengthAdjust="spacing" textLength="78" x="310.2" y="488.5529">Return the saved Floor</text><polygon fill="#181818" points="180.6,508.0852,174.6,510.4852,180.6,512.8852,178.2,510.4852" style="stroke:#181818;stroke-width:0.6;"/><line style="stroke:#181818;stroke-width:0.6;stroke-dasharray:2.0,2.0;" x1="177" x2="296.4" y1="510.4852" y2="510.4852"/><text fill="#000000" font-family="sans-serif" font-size="7.8" lengthAdjust="spacing" textLength="105.6" x="184.2" y="507.3275">Return the saved Floor (JSON)</text><polygon fill="#181818" points="6.6,526.8598,0.6,529.2598,6.6,531.6598,4.2,529.2598" style="stroke:#181818;stroke-width:0.6;"/><line style="stroke:#181818;stroke-width:0.6;stroke-dasharray:2.0,2.0;" x1="3" x2="170.4" y1="529.2598" y2="529.2598"/><text fill="#000000" font-family="sans-serif" font-size="7.8" lengthAdjust="spacing" textLength="156.6" x="10.2" y="526.1021">Return response: saved Floor in JSON format</text><!--SRC=[jLLDRzf04BtpAqPS2ceHbvuGGYfGLwb4Y83abCjY3s4bUzVTNPFoxpkpQx0DJeXQzRPuvhsPUVD1BeoJiSo5Sj0TZsTQEI4L6fXzdKoULPGYkiypaUM5XOLGuWKpLAuBmi9g_gEJr-4hNJYfNe9n-RXfMfdQw3H5unrccrNJlaPpa35w8x-RrYZLsgmmrrOwROxUArfzVrYsk7dZVBduTdVVj4uBcIQKuGNFz9fdBfpO2XkocK-RneN8yxAAyEmC1XEM0qRmeAq3WxyAj6u4tQ78vN37IGrZWy9XjoDY9m_qylenYB6a5e5PG0IdR-1OMeyW9Cb8m9b8K-W6prA23DrU9nMAzMPdmh2wxu6ULU_HaaodEc2hawCNOhFiLuo-IPwBEBs6HFg4HkwE87VWzWYUzfE5RIayu6zfdON2rdvSPXhQ4GY9UJxbN7akO-T9Jxsf4DGWyXhKqbYXAupoxWPjaJhG8QC3voTZuQHMdGJh5EU8fJuVue0UbOh6QFC5K2NUdXiTexNzEdyewgHMzAvQfp65kmJs9Bi85dYLRkyThSWGL95jQVJE4S8sH7ybM_GFiaN_KxQe8LlOQQxB3oq9e_0rYDDHcZwakFFXokMVQxIUMY4p2tC4McGIpz61EuXK9g4Wpe3nDMbAWX2mjRYmE4aPlgv9m5xsEgoR5GUyshChklwRRGq7X-ZeKGqDtmpwR6cVKCK8L9U0J2UOLaJbgIe9sfkUiR6bf1BR7AurbLAbyC6nulhRD3lFKQlMRw3gqt6-XRTX_d3vMrWxlJTHV433rJqV-tOGz7wkb_UDCVOdUpmOCEuCe-t8jR8uQe2b0eR3JfjCk0O9_L_y0G00]--></g></svg>