<?xml version="1.0" encoding="us-ascii" standalone="no"?><svg xmlns="http://www.w3.org/2000/svg" xmlns:xlink="http://www.w3.org/1999/xlink" contentStyleType="text/css" height="477px" preserveAspectRatio="none" style="width:883px;height:477px;background:#FFFFFF;" version="1.1" viewBox="0 0 883 477" width="883px" zoomAndPan="magnify"><defs/><g><rect fill="#FFFFFF" height="394.7832" style="stroke:#181818;stroke-width:0.5;" width="5" x="140" y="45.2666"/><rect fill="#FFFFFF" height="363.4922" style="stroke:#181818;stroke-width:0.5;" width="5" x="262" y="60.9121"/><rect fill="#FFFFFF" height="332.2012" style="stroke:#181818;stroke-width:0.5;" width="5" x="352" y="76.5576"/><rect fill="#FFFFFF" height="292.2646" style="stroke:#181818;stroke-width:0.5;" width="5" x="520.5" y="100.8486"/><rect fill="#FFFFFF" height="78.2275" style="stroke:#181818;stroke-width:0.5;" width="5" x="678" y="125.1396"/><rect fill="#FFFFFF" height="127.6641" style="stroke:#181818;stroke-width:0.5;" width="5" x="678" y="249.8037"/><rect fill="#FFFFFF" height="15.6455" style="stroke:#181818;stroke-width:0.5;" width="5" x="819.5" y="172.0762"/><rect fill="#FFFFFF" height="15.6455" style="stroke:#181818;stroke-width:0.5;" width="5" x="819.5" y="284.0947"/><rect fill="#FFFFFF" height="15.6455" style="stroke:#181818;stroke-width:0.5;" width="5" x="858.75" y="140.7852"/><rect fill="#FFFFFF" height="15.6455" style="stroke:#181818;stroke-width:0.5;" width="5" x="858.75" y="346.1768"/><line style="stroke:#181818;stroke-width:0.25;stroke-dasharray:5.0,5.0;" x1="142.5" x2="142.5" y1="28.6211" y2="449.0498"/><line style="stroke:#181818;stroke-width:0.25;stroke-dasharray:5.0,5.0;" x1="264.25" x2="264.25" y1="28.6211" y2="449.0498"/><line style="stroke:#181818;stroke-width:0.25;stroke-dasharray:5.0,5.0;" x1="354.5" x2="354.5" y1="28.6211" y2="449.0498"/><line style="stroke:#181818;stroke-width:0.25;stroke-dasharray:5.0,5.0;" x1="522.75" x2="522.75" y1="28.6211" y2="449.0498"/><line style="stroke:#181818;stroke-width:0.25;stroke-dasharray:5.0,5.0;" x1="680.5" x2="680.5" y1="28.6211" y2="449.0498"/><line style="stroke:#181818;stroke-width:0.25;stroke-dasharray:5.0,5.0;" x1="785" x2="785" y1="28.6211" y2="449.0498"/><line style="stroke:#181818;stroke-width:0.25;stroke-dasharray:5.0,5.0;" x1="822" x2="822" y1="28.6211" y2="449.0498"/><line style="stroke:#181818;stroke-width:0.25;stroke-dasharray:5.0,5.0;" x1="861" x2="861" y1="28.6211" y2="449.0498"/><rect fill="#E2E2F0" height="25.6211" rx="1.25" ry="1.25" style="stroke:#181818;stroke-width:0.25;" width="76" x="104.5" y="2.5"/><text fill="#000000" font-family="sans-serif" font-size="7" lengthAdjust="spacing" textLength="50" x="117.5" y="13.5537">&#171;Container C4&#187;</text><text fill="#000000" font-family="sans-serif" font-size="7" lengthAdjust="spacing" textLength="69" x="108" y="22.8643">Campus Management</text><rect fill="#E2E2F0" height="25.6211" rx="1.25" ry="1.25" style="stroke:#181818;stroke-width:0.25;" width="76" x="104.5" y="448.5498"/><text fill="#000000" font-family="sans-serif" font-size="7" lengthAdjust="spacing" textLength="50" x="117.5" y="459.6035">&#171;Container C4&#187;</text><text fill="#000000" font-family="sans-serif" font-size="7" lengthAdjust="spacing" textLength="69" x="108" y="468.9141">Campus Management</text><rect fill="#E2E2F0" height="16.3105" rx="1.25" ry="1.25" style="stroke:#181818;stroke-width:0.25;" width="31.5" x="248.75" y="11.8105"/><text fill="#000000" font-family="sans-serif" font-size="7" lengthAdjust="spacing" textLength="24.5" x="252.25" y="22.8643">Routing</text><rect fill="#E2E2F0" height="16.3105" rx="1.25" ry="1.25" style="stroke:#181818;stroke-width:0.25;" width="31.5" x="248.75" y="448.5498"/><text fill="#000000" font-family="sans-serif" font-size="7" lengthAdjust="spacing" textLength="24.5" x="252.25" y="459.6035">Routing</text><rect fill="#E2E2F0" height="16.3105" rx="1.25" ry="1.25" style="stroke:#181818;stroke-width:0.25;" width="38" x="335.5" y="11.8105"/><text fill="#000000" font-family="sans-serif" font-size="7" lengthAdjust="spacing" textLength="31" x="339" y="22.8643">Controller</text><rect fill="#E2E2F0" height="16.3105" rx="1.25" ry="1.25" style="stroke:#181818;stroke-width:0.25;" width="38" x="335.5" y="448.5498"/><text fill="#000000" font-family="sans-serif" font-size="7" lengthAdjust="spacing" textLength="31" x="339" y="459.6035">Controller</text><rect fill="#E2E2F0" height="16.3105" rx="1.25" ry="1.25" style="stroke:#181818;stroke-width:0.25;" width="30.5" x="507.75" y="11.8105"/><text fill="#000000" font-family="sans-serif" font-size="7" lengthAdjust="spacing" textLength="23.5" x="511.25" y="22.8643">Service</text><rect fill="#E2E2F0" height="16.3105" rx="1.25" ry="1.25" style="stroke:#181818;stroke-width:0.25;" width="30.5" x="507.75" y="448.5498"/><text fill="#000000" font-family="sans-serif" font-size="7" lengthAdjust="spacing" textLength="23.5" x="511.25" y="459.6035">Service</text><rect fill="#E2E2F0" height="16.3105" rx="1.25" ry="1.25" style="stroke:#181818;stroke-width:0.25;" width="41" x="660" y="11.8105"/><text fill="#000000" font-family="sans-serif" font-size="7" lengthAdjust="spacing" textLength="34" x="663.5" y="22.8643">Repository</text><rect fill="#E2E2F0" height="16.3105" rx="1.25" ry="1.25" style="stroke:#181818;stroke-width:0.25;" width="41" x="660" y="448.5498"/><text fill="#000000" font-family="sans-serif" font-size="7" lengthAdjust="spacing" textLength="34" x="663.5" y="459.6035">Repository</text><rect fill="#E2E2F0" height="16.3105" rx="1.25" ry="1.25" style="stroke:#181818;stroke-width:0.25;" width="33" x="768.5" y="11.8105"/><text fill="#000000" font-family="sans-serif" font-size="7" lengthAdjust="spacing" textLength="26" x="772" y="22.8643">Elevator</text><rect fill="#E2E2F0" height="16.3105" rx="1.25" ry="1.25" style="stroke:#181818;stroke-width:0.25;" width="33" x="768.5" y="448.5498"/><text fill="#000000" font-family="sans-serif" font-size="7" lengthAdjust="spacing" textLength="26" x="772" y="459.6035">Elevator</text><rect fill="#E2E2F0" height="16.3105" rx="1.25" ry="1.25" style="stroke:#181818;stroke-width:0.25;" width="31" x="806.5" y="11.8105"/><text fill="#000000" font-family="sans-serif" font-size="7" lengthAdjust="spacing" textLength="24" x="810" y="22.8643">Mapper</text><rect fill="#E2E2F0" height="16.3105" rx="1.25" ry="1.25" style="stroke:#181818;stroke-width:0.25;" width="31" x="806.5" y="448.5498"/><text fill="#000000" font-family="sans-serif" font-size="7" lengthAdjust="spacing" textLength="24" x="810" y="459.6035">Mapper</text><rect fill="#E2E2F0" height="16.3105" rx="1.25" ry="1.25" style="stroke:#181818;stroke-width:0.25;" width="37.5" x="842.5" y="11.8105"/><text fill="#000000" font-family="sans-serif" font-size="7" lengthAdjust="spacing" textLength="30.5" x="846" y="22.8643">Database</text><rect fill="#E2E2F0" height="16.3105" rx="1.25" ry="1.25" style="stroke:#181818;stroke-width:0.25;" width="37.5" x="842.5" y="448.5498"/><text fill="#000000" font-family="sans-serif" font-size="7" lengthAdjust="spacing" textLength="30.5" x="846" y="459.6035">Database</text><rect fill="#FFFFFF" height="394.7832" style="stroke:#181818;stroke-width:0.5;" width="5" x="140" y="45.2666"/><rect fill="#FFFFFF" height="363.4922" style="stroke:#181818;stroke-width:0.5;" width="5" x="262" y="60.9121"/><rect fill="#FFFFFF" height="332.2012" style="stroke:#181818;stroke-width:0.5;" width="5" x="352" y="76.5576"/><rect fill="#FFFFFF" height="292.2646" style="stroke:#181818;stroke-width:0.5;" width="5" x="520.5" y="100.8486"/><rect fill="#FFFFFF" height="78.2275" style="stroke:#181818;stroke-width:0.5;" width="5" x="678" y="125.1396"/><rect fill="#FFFFFF" height="127.6641" style="stroke:#181818;stroke-width:0.5;" width="5" x="678" y="249.8037"/><rect fill="#FFFFFF" height="15.6455" style="stroke:#181818;stroke-width:0.5;" width="5" x="819.5" y="172.0762"/><rect fill="#FFFFFF" height="15.6455" style="stroke:#181818;stroke-width:0.5;" width="5" x="819.5" y="284.0947"/><rect fill="#FFFFFF" height="15.6455" style="stroke:#181818;stroke-width:0.5;" width="5" x="858.75" y="140.7852"/><rect fill="#FFFFFF" height="15.6455" style="stroke:#181818;stroke-width:0.5;" width="5" x="858.75" y="346.1768"/><polygon fill="#181818" points="134,43.2666,139,45.2666,134,47.2666,136,45.2666" style="stroke:#181818;stroke-width:0.5;"/><line style="stroke:#181818;stroke-width:0.5;stroke-dasharray:2.0,2.0;" x1="0" x2="137" y1="45.2666" y2="45.2666"/><text fill="#000000" font-family="sans-serif" font-size="6.5" lengthAdjust="spacing" textLength="118.5" x="3.5" y="42.6353">Put request: "/api/floor/update/:domainId"</text><polygon fill="#181818" points="256,58.9121,261,60.9121,256,62.9121,258,60.9121" style="stroke:#181818;stroke-width:0.5;"/><line style="stroke:#181818;stroke-width:0.5;" x1="145" x2="259" y1="60.9121" y2="60.9121"/><text fill="#000000" font-family="sans-serif" font-size="6.5" lengthAdjust="spacing" textLength="107.5" x="148.5" y="58.2808">Route to "/api/floor/update/:domainId"</text><polygon fill="#181818" points="346,74.5576,351,76.5576,346,78.5576,348,76.5576" style="stroke:#181818;stroke-width:0.5;"/><line style="stroke:#181818;stroke-width:0.5;" x1="267" x2="349" y1="76.5576" y2="76.5576"/><text fill="#000000" font-family="sans-serif" font-size="6.5" lengthAdjust="spacing" textLength="75.5" x="270.5" y="73.9263">Call "updateFloor" method</text><polygon fill="#181818" points="514.5,98.8486,519.5,100.8486,514.5,102.8486,516.5,100.8486" style="stroke:#181818;stroke-width:0.5;"/><line style="stroke:#181818;stroke-width:0.5;" x1="357" x2="517.5" y1="100.8486" y2="100.8486"/><text fill="#000000" font-family="sans-serif" font-size="6.5" lengthAdjust="spacing" textLength="75.5" x="360.5" y="89.5718">Call "updateFloor" method</text><text fill="#000000" font-family="sans-serif" font-size="6.5" lengthAdjust="spacing" textLength="154" x="360.5" y="98.2173">(Using domainId as parameter, request body as DTO)</text><polygon fill="#181818" points="672,123.1396,677,125.1396,672,127.1396,674,125.1396" style="stroke:#181818;stroke-width:0.5;"/><line style="stroke:#181818;stroke-width:0.5;" x1="525.5" x2="675" y1="125.1396" y2="125.1396"/><text fill="#000000" font-family="sans-serif" font-size="6.5" lengthAdjust="spacing" textLength="49" x="529" y="113.8628">Find Floor record</text><text fill="#000000" font-family="sans-serif" font-size="6.5" lengthAdjust="spacing" textLength="88.5" x="529" y="122.5083">(Using domainId as parameter)</text><polygon fill="#181818" points="852.75,138.7852,857.75,140.7852,852.75,142.7852,854.75,140.7852" style="stroke:#181818;stroke-width:0.5;"/><line style="stroke:#181818;stroke-width:0.5;" x1="683" x2="855.75" y1="140.7852" y2="140.7852"/><text fill="#000000" font-family="sans-serif" font-size="6.5" lengthAdjust="spacing" textLength="62" x="686.5" y="138.1538">Contact the database</text><polygon fill="#181818" points="688.5,154.4307,683.5,156.4307,688.5,158.4307,686.5,156.4307" style="stroke:#181818;stroke-width:0.5;"/><line style="stroke:#181818;stroke-width:0.5;stroke-dasharray:2.0,2.0;" x1="685.5" x2="860.75" y1="156.4307" y2="156.4307"/><text fill="#000000" font-family="sans-serif" font-size="6.5" lengthAdjust="spacing" textLength="93" x="691.5" y="153.7993">Return the Floor record (if found)</text><polygon fill="#181818" points="813.5,170.0762,818.5,172.0762,813.5,174.0762,815.5,172.0762" style="stroke:#181818;stroke-width:0.5;"/><line style="stroke:#181818;stroke-width:0.5;" x1="683" x2="816.5" y1="172.0762" y2="172.0762"/><text fill="#000000" font-family="sans-serif" font-size="6.5" lengthAdjust="spacing" textLength="126.5" x="686.5" y="169.4448">Map the Floor record to Floor domain model</text><polygon fill="#181818" points="688.5,185.7217,683.5,187.7217,688.5,189.7217,686.5,187.7217" style="stroke:#181818;stroke-width:0.5;"/><line style="stroke:#181818;stroke-width:0.5;" x1="685.5" x2="821.5" y1="187.7217" y2="187.7217"/><text fill="#000000" font-family="sans-serif" font-size="6.5" lengthAdjust="spacing" textLength="71.5" x="691.5" y="185.0903">Return the mapped Floor</text><polygon fill="#181818" points="531,201.3672,526,203.3672,531,205.3672,529,203.3672" style="stroke:#181818;stroke-width:0.5;"/><line style="stroke:#181818;stroke-width:0.5;stroke-dasharray:2.0,2.0;" x1="528" x2="680" y1="203.3672" y2="203.3672"/><text fill="#000000" font-family="sans-serif" font-size="6.5" lengthAdjust="spacing" textLength="46.5" x="534" y="200.7358">Return the Floor</text><line style="stroke:#181818;stroke-width:0.5;stroke-dasharray:2.0,2.0;" x1="525.5" x2="546.5" y1="219.0127" y2="219.0127"/><line style="stroke:#181818;stroke-width:0.5;stroke-dasharray:2.0,2.0;" x1="546.5" x2="546.5" y1="219.0127" y2="225.5127"/><line style="stroke:#181818;stroke-width:0.5;stroke-dasharray:2.0,2.0;" x1="526" x2="546.5" y1="225.5127" y2="225.5127"/><polygon fill="#181818" points="531,223.5127,526,225.5127,531,227.5127,529,225.5127" style="stroke:#181818;stroke-width:0.5;"/><text fill="#000000" font-family="sans-serif" font-size="6.5" lengthAdjust="spacing" textLength="145.5" x="529" y="216.3813">Update the Floor with the request body information</text><polygon fill="#181818" points="672,247.8037,677,249.8037,672,251.8037,674,249.8037" style="stroke:#181818;stroke-width:0.5;"/><line style="stroke:#181818;stroke-width:0.5;" x1="525.5" x2="675" y1="249.8037" y2="249.8037"/><text fill="#000000" font-family="sans-serif" font-size="6.5" lengthAdjust="spacing" textLength="61" x="529" y="238.5269">Call "update" method</text><text fill="#000000" font-family="sans-serif" font-size="6.5" lengthAdjust="spacing" textLength="73" x="529" y="247.1724">(Using the updated Floor)</text><path d="M614.5,256.3037 L614.5,269.8037 L746,269.8037 L746,261.3037 L741,256.3037 L614.5,256.3037 " fill="#FEFFDD" style="stroke:#181818;stroke-width:0.25;"/><path d="M741,256.3037 L741,261.3037 L746,261.3037 L741,256.3037 " fill="#FEFFDD" style="stroke:#181818;stroke-width:0.25;"/><text fill="#000000" font-family="sans-serif" font-size="6.5" lengthAdjust="spacing" textLength="121" x="617.5" y="265.8179">Does the necessary parameter validations</text><polygon fill="#181818" points="813.5,282.0947,818.5,284.0947,813.5,286.0947,815.5,284.0947" style="stroke:#181818;stroke-width:0.5;"/><line style="stroke:#181818;stroke-width:0.5;" x1="683" x2="816.5" y1="284.0947" y2="284.0947"/><text fill="#000000" font-family="sans-serif" font-size="6.5" lengthAdjust="spacing" textLength="117" x="686.5" y="281.4634">Map the Floor to persistence data model</text><polygon fill="#181818" points="688.5,297.7402,683.5,299.7402,688.5,301.7402,686.5,299.7402" style="stroke:#181818;stroke-width:0.5;"/><line style="stroke:#181818;stroke-width:0.5;" x1="685.5" x2="821.5" y1="299.7402" y2="299.7402"/><text fill="#000000" font-family="sans-serif" font-size="6.5" lengthAdjust="spacing" textLength="71.5" x="691.5" y="297.1089">Return the mapped Floor</text><line style="stroke:#181818;stroke-width:0.5;stroke-dasharray:2.0,2.0;" x1="683" x2="704" y1="324.0313" y2="324.0313"/><line style="stroke:#181818;stroke-width:0.5;stroke-dasharray:2.0,2.0;" x1="704" x2="704" y1="324.0313" y2="330.5313"/><line style="stroke:#181818;stroke-width:0.5;stroke-dasharray:2.0,2.0;" x1="683.5" x2="704" y1="330.5313" y2="330.5313"/><polygon fill="#181818" points="688.5,328.5313,683.5,330.5313,688.5,332.5313,686.5,330.5313" style="stroke:#181818;stroke-width:0.5;"/><text fill="#000000" font-family="sans-serif" font-size="6.5" lengthAdjust="spacing" textLength="74.5" x="686.5" y="312.7544">Call "save" method that is</text><text fill="#000000" font-family="sans-serif" font-size="6.5" lengthAdjust="spacing" textLength="92.5" x="686.5" y="321.3999">already implemented in the repo</text><polygon fill="#181818" points="852.75,344.1768,857.75,346.1768,852.75,348.1768,854.75,346.1768" style="stroke:#181818;stroke-width:0.5;"/><line style="stroke:#181818;stroke-width:0.5;" x1="683" x2="855.75" y1="346.1768" y2="346.1768"/><text fill="#000000" font-family="sans-serif" font-size="6.5" lengthAdjust="spacing" textLength="70.5" x="686.5" y="343.5454">Save the Floor (updated)</text><polygon fill="#181818" points="688.5,359.8223,683.5,361.8223,688.5,363.8223,686.5,361.8223" style="stroke:#181818;stroke-width:0.5;"/><line style="stroke:#181818;stroke-width:0.5;stroke-dasharray:2.0,2.0;" x1="685.5" x2="860.75" y1="361.8223" y2="361.8223"/><text fill="#000000" font-family="sans-serif" font-size="6.5" lengthAdjust="spacing" textLength="65" x="691.5" y="359.1909">Return the saved Floor</text><polygon fill="#181818" points="531,375.4678,526,377.4678,531,379.4678,529,377.4678" style="stroke:#181818;stroke-width:0.5;"/><line style="stroke:#181818;stroke-width:0.5;stroke-dasharray:2.0,2.0;" x1="528" x2="680" y1="377.4678" y2="377.4678"/><text fill="#000000" font-family="sans-serif" font-size="6.5" lengthAdjust="spacing" textLength="65" x="534" y="374.8364">Return the saved Floor</text><polygon fill="#181818" points="362.5,391.1133,357.5,393.1133,362.5,395.1133,360.5,393.1133" style="stroke:#181818;stroke-width:0.5;"/><line style="stroke:#181818;stroke-width:0.5;stroke-dasharray:2.0,2.0;" x1="359.5" x2="522.5" y1="393.1133" y2="393.1133"/><text fill="#000000" font-family="sans-serif" font-size="6.5" lengthAdjust="spacing" textLength="65" x="365.5" y="390.4819">Return the saved Floor</text><polygon fill="#181818" points="272.5,406.7588,267.5,408.7588,272.5,410.7588,270.5,408.7588" style="stroke:#181818;stroke-width:0.5;"/><line style="stroke:#181818;stroke-width:0.5;stroke-dasharray:2.0,2.0;" x1="269.5" x2="354" y1="408.7588" y2="408.7588"/><text fill="#000000" font-family="sans-serif" font-size="6.5" lengthAdjust="spacing" textLength="65" x="275.5" y="406.1274">Return the saved Floor</text><polygon fill="#181818" points="150.5,422.4043,145.5,424.4043,150.5,426.4043,148.5,424.4043" style="stroke:#181818;stroke-width:0.5;"/><line style="stroke:#181818;stroke-width:0.5;stroke-dasharray:2.0,2.0;" x1="147.5" x2="264" y1="424.4043" y2="424.4043"/><text fill="#000000" font-family="sans-serif" font-size="6.5" lengthAdjust="spacing" textLength="88" x="153.5" y="421.7729">Return the saved Floor (JSON)</text><polygon fill="#181818" points="5.5,438.0498,0.5,440.0498,5.5,442.0498,3.5,440.0498" style="stroke:#181818;stroke-width:0.5;"/><line style="stroke:#181818;stroke-width:0.5;stroke-dasharray:2.0,2.0;" x1="2.5" x2="142" y1="440.0498" y2="440.0498"/><text fill="#000000" font-family="sans-serif" font-size="6.5" lengthAdjust="spacing" textLength="130.5" x="8.5" y="437.4185">Return response: saved Floor in JSON format</text><!--SRC=[jLHDRo8n3BtpAonE82tYiYU4aBPCk-fAb8gF6nTtnfH8CqasoR3Ytw-J3Co4qgMNlMMmtxFzdh56uqGkD4e7_UbqhgH38Sd0_FjijfDph7HjOO4ItwaYwVg05bRPpvxk0bUgTaA-n-1okqcZdjIeiYGJ4kQRLHfVapcAd4BGlw-uIIihd3AdIF_ukamJ7aiw8iT3E5ikVZo_f0aBrBgf7PzfE4E7RsXZ_UoXDnhD_8GmWTVQWQ7VDLatWVuOjHZlIwNCkDO5EXfF2bMnMiz5luUv4zm51MqysfEm4ipYnI5mwiiCNi20PGuMYodcM9RGZvWdZ-z3HUwWYXRbLVN9ZF4Q_WkqauEjPRlWNDmFpf8WXybyEuyCRweu1Kqsos5RA3WKIlWHsGqkzIHa0Q46WtDbxfJei0Kx0mkpPG- -RR-2kGDt82WQQzfyzeUpHctf5RdQo93TRG06OWzxLSjYs2ke2pyNYwl03Fpu26UxudSS02fLKDcsqUnHmt6pcyh76bMwBJJGs4RhrlKSNKWGAKhU0hR1s4xdVuGxXC_4Fo7tobJeX9BNhdKNvCDkUA8OQcQuDaqgVgaZZ-y_9v0fiW4bAIThqPnQm-68fIX24_QU0Qmy_so5TIJpk0B_KVr42el7Yn3CWWw4XPt4qX1wAIjTXYF8n48sKckLhk-QEJhJ31eDXrzROT_1ZQulQtjpNpu1fLiJ3ybzLFXxXqFIkM1tKVxwn9DrEPwtGJ3ujLw-9F_9SE-cev77NM26hEPbeKa2PjKz7E9A9oHyTly2]--></g></svg>