<?xml version="1.0" encoding="us-ascii" standalone="no"?><svg xmlns="http://www.w3.org/2000/svg" xmlns:xlink="http://www.w3.org/1999/xlink" contentStyleType="text/css" height="706px" preserveAspectRatio="none" style="width:1682px;height:706px;background:#FFFFFF;" version="1.1" viewBox="0 0 1682 706" width="1682px" zoomAndPan="magnify"><defs/><g><rect fill="#FFFFFF" height="541.2383" style="stroke:#181818;stroke-width:1.0;" width="10" x="326" y="90.5332"/><rect fill="#FFFFFF" height="478.6563" style="stroke:#181818;stroke-width:1.0;" width="10" x="582" y="121.8242"/><rect fill="#FFFFFF" height="416.0742" style="stroke:#181818;stroke-width:1.0;" width="10" x="805" y="153.1152"/><rect fill="#FFFFFF" height="336.2012" style="stroke:#181818;stroke-width:1.0;" width="10" x="1028" y="201.6973"/><rect fill="#FFFFFF" height="156.4551" style="stroke:#181818;stroke-width:1.0;" width="10" x="1246" y="350.1523"/><rect fill="#FFFFFF" height="68.582" style="stroke:#181818;stroke-width:1.0;" width="10" x="1346.5" y="232.9883"/><rect fill="#FFFFFF" height="31.291" style="stroke:#181818;stroke-width:1.0;" width="10" x="1555" y="381.4434"/><rect fill="#FFFFFF" height="31.291" style="stroke:#181818;stroke-width:1.0;" width="10" x="1633.5" y="444.0254"/><line style="stroke:#181818;stroke-width:0.5;stroke-dasharray:5.0,5.0;" x1="331" x2="331" y1="57.2422" y2="649.7715"/><line style="stroke:#181818;stroke-width:0.5;stroke-dasharray:5.0,5.0;" x1="586.5" x2="586.5" y1="57.2422" y2="649.7715"/><line style="stroke:#181818;stroke-width:0.5;stroke-dasharray:5.0,5.0;" x1="810" x2="810" y1="57.2422" y2="649.7715"/><line style="stroke:#181818;stroke-width:0.5;stroke-dasharray:5.0,5.0;" x1="1032.5" x2="1032.5" y1="57.2422" y2="649.7715"/><line style="stroke:#181818;stroke-width:0.5;stroke-dasharray:5.0,5.0;" x1="1251" x2="1251" y1="57.2422" y2="649.7715"/><line style="stroke:#181818;stroke-width:0.5;stroke-dasharray:5.0,5.0;" x1="1351" x2="1351" y1="57.2422" y2="649.7715"/><line style="stroke:#181818;stroke-width:0.5;stroke-dasharray:5.0,5.0;" x1="1560" x2="1560" y1="57.2422" y2="649.7715"/><line style="stroke:#181818;stroke-width:0.5;stroke-dasharray:5.0,5.0;" x1="1638" x2="1638" y1="57.2422" y2="649.7715"/><rect fill="#E2E2F0" height="51.2422" rx="2.5" ry="2.5" style="stroke:#181818;stroke-width:0.5;" width="132" x="265" y="5"/><text fill="#000000" font-family="sans-serif" font-size="14" lengthAdjust="spacing" textLength="100" x="281" y="27.1074">&#171;Container C4&#187;</text><text fill="#000000" font-family="sans-serif" font-size="14" lengthAdjust="spacing" textLength="118" x="272" y="45.7285">Fleet Management</text><rect fill="#E2E2F0" height="51.2422" rx="2.5" ry="2.5" style="stroke:#181818;stroke-width:0.5;" width="132" x="265" y="648.7715"/><text fill="#000000" font-family="sans-serif" font-size="14" lengthAdjust="spacing" textLength="100" x="281" y="670.8789">&#171;Container C4&#187;</text><text fill="#000000" font-family="sans-serif" font-size="14" lengthAdjust="spacing" textLength="118" x="272" y="689.5">Fleet Management</text><rect fill="#E2E2F0" height="32.6211" rx="2.5" ry="2.5" style="stroke:#181818;stroke-width:0.5;" width="63" x="555.5" y="23.6211"/><text fill="#000000" font-family="sans-serif" font-size="14" lengthAdjust="spacing" textLength="49" x="562.5" y="45.7285">Routing</text><rect fill="#E2E2F0" height="32.6211" rx="2.5" ry="2.5" style="stroke:#181818;stroke-width:0.5;" width="63" x="555.5" y="648.7715"/><text fill="#000000" font-family="sans-serif" font-size="14" lengthAdjust="spacing" textLength="49" x="562.5" y="670.8789">Routing</text><rect fill="#E2E2F0" height="32.6211" rx="2.5" ry="2.5" style="stroke:#181818;stroke-width:0.5;" width="76" x="772" y="23.6211"/><text fill="#000000" font-family="sans-serif" font-size="14" lengthAdjust="spacing" textLength="62" x="779" y="45.7285">Controller</text><rect fill="#E2E2F0" height="32.6211" rx="2.5" ry="2.5" style="stroke:#181818;stroke-width:0.5;" width="76" x="772" y="648.7715"/><text fill="#000000" font-family="sans-serif" font-size="14" lengthAdjust="spacing" textLength="62" x="779" y="670.8789">Controller</text><rect fill="#E2E2F0" height="32.6211" rx="2.5" ry="2.5" style="stroke:#181818;stroke-width:0.5;" width="61" x="1002.5" y="23.6211"/><text fill="#000000" font-family="sans-serif" font-size="14" lengthAdjust="spacing" textLength="47" x="1009.5" y="45.7285">Service</text><rect fill="#E2E2F0" height="32.6211" rx="2.5" ry="2.5" style="stroke:#181818;stroke-width:0.5;" width="61" x="1002.5" y="648.7715"/><text fill="#000000" font-family="sans-serif" font-size="14" lengthAdjust="spacing" textLength="47" x="1009.5" y="670.8789">Service</text><rect fill="#E2E2F0" height="32.6211" rx="2.5" ry="2.5" style="stroke:#181818;stroke-width:0.5;" width="82" x="1210" y="23.6211"/><text fill="#000000" font-family="sans-serif" font-size="14" lengthAdjust="spacing" textLength="68" x="1217" y="45.7285">Repository</text><rect fill="#E2E2F0" height="32.6211" rx="2.5" ry="2.5" style="stroke:#181818;stroke-width:0.5;" width="82" x="1210" y="648.7715"/><text fill="#000000" font-family="sans-serif" font-size="14" lengthAdjust="spacing" textLength="68" x="1217" y="670.8789">Repository</text><rect fill="#E2E2F0" height="32.6211" rx="2.5" ry="2.5" style="stroke:#181818;stroke-width:0.5;" width="99" x="1302" y="23.6211"/><text fill="#000000" font-family="sans-serif" font-size="14" lengthAdjust="spacing" textLength="85" x="1309" y="45.7285">TypeOfRobot</text><rect fill="#E2E2F0" height="32.6211" rx="2.5" ry="2.5" style="stroke:#181818;stroke-width:0.5;" width="99" x="1302" y="648.7715"/><text fill="#000000" font-family="sans-serif" font-size="14" lengthAdjust="spacing" textLength="85" x="1309" y="670.8789">TypeOfRobot</text><rect fill="#E2E2F0" height="32.6211" rx="2.5" ry="2.5" style="stroke:#181818;stroke-width:0.5;" width="62" x="1529" y="23.6211"/><text fill="#000000" font-family="sans-serif" font-size="14" lengthAdjust="spacing" textLength="48" x="1536" y="45.7285">Mapper</text><rect fill="#E2E2F0" height="32.6211" rx="2.5" ry="2.5" style="stroke:#181818;stroke-width:0.5;" width="62" x="1529" y="648.7715"/><text fill="#000000" font-family="sans-serif" font-size="14" lengthAdjust="spacing" textLength="48" x="1536" y="670.8789">Mapper</text><rect fill="#E2E2F0" height="32.6211" rx="2.5" ry="2.5" style="stroke:#181818;stroke-width:0.5;" width="75" x="1601" y="23.6211"/><text fill="#000000" font-family="sans-serif" font-size="14" lengthAdjust="spacing" textLength="61" x="1608" y="45.7285">Database</text><rect fill="#E2E2F0" height="32.6211" rx="2.5" ry="2.5" style="stroke:#181818;stroke-width:0.5;" width="75" x="1601" y="648.7715"/><text fill="#000000" font-family="sans-serif" font-size="14" lengthAdjust="spacing" textLength="61" x="1608" y="670.8789">Database</text><rect fill="#FFFFFF" height="541.2383" style="stroke:#181818;stroke-width:1.0;" width="10" x="326" y="90.5332"/><rect fill="#FFFFFF" height="478.6563" style="stroke:#181818;stroke-width:1.0;" width="10" x="582" y="121.8242"/><rect fill="#FFFFFF" height="416.0742" style="stroke:#181818;stroke-width:1.0;" width="10" x="805" y="153.1152"/><rect fill="#FFFFFF" height="336.2012" style="stroke:#181818;stroke-width:1.0;" width="10" x="1028" y="201.6973"/><rect fill="#FFFFFF" height="156.4551" style="stroke:#181818;stroke-width:1.0;" width="10" x="1246" y="350.1523"/><rect fill="#FFFFFF" height="68.582" style="stroke:#181818;stroke-width:1.0;" width="10" x="1346.5" y="232.9883"/><rect fill="#FFFFFF" height="31.291" style="stroke:#181818;stroke-width:1.0;" width="10" x="1555" y="381.4434"/><rect fill="#FFFFFF" height="31.291" style="stroke:#181818;stroke-width:1.0;" width="10" x="1633.5" y="444.0254"/><polygon fill="#181818" points="314,86.5332,324,90.5332,314,94.5332,318,90.5332" style="stroke:#181818;stroke-width:1.0;"/><line style="stroke:#181818;stroke-width:1.0;stroke-dasharray:2.0,2.0;" x1="0" x2="320" y1="90.5332" y2="90.5332"/><text fill="#000000" font-family="sans-serif" font-size="13" lengthAdjust="spacing" textLength="229" x="7" y="85.2705">Post request: "/api/typeOfRobot/create"</text><polygon fill="#181818" points="570,117.8242,580,121.8242,570,125.8242,574,121.8242" style="stroke:#181818;stroke-width:1.0;"/><line style="stroke:#181818;stroke-width:1.0;" x1="336" x2="576" y1="121.8242" y2="121.8242"/><text fill="#000000" font-family="sans-serif" font-size="13" lengthAdjust="spacing" textLength="200" x="343" y="116.5615">Route to "/api/typeOfRobot/create"</text><polygon fill="#181818" points="793,149.1152,803,153.1152,793,157.1152,797,153.1152" style="stroke:#181818;stroke-width:1.0;"/><line style="stroke:#181818;stroke-width:1.0;" x1="592" x2="799" y1="153.1152" y2="153.1152"/><text fill="#000000" font-family="sans-serif" font-size="13" lengthAdjust="spacing" textLength="194" x="599" y="147.8525">Call "createTypeOfRobot" method</text><polygon fill="#181818" points="1016,197.6973,1026,201.6973,1016,205.6973,1020,201.6973" style="stroke:#181818;stroke-width:1.0;"/><line style="stroke:#181818;stroke-width:1.0;" x1="815" x2="1022" y1="201.6973" y2="201.6973"/><text fill="#000000" font-family="sans-serif" font-size="13" lengthAdjust="spacing" textLength="194" x="822" y="179.1436">Call "createTypeOfRobot" method</text><text fill="#000000" font-family="sans-serif" font-size="13" lengthAdjust="spacing" textLength="168" x="822" y="196.4346">(Using request body as DTO)</text><polygon fill="#181818" points="1334.5,228.9883,1344.5,232.9883,1334.5,236.9883,1338.5,232.9883" style="stroke:#181818;stroke-width:1.0;"/><line style="stroke:#181818;stroke-width:1.0;" x1="1038" x2="1340.5" y1="232.9883" y2="232.9883"/><text fill="#000000" font-family="sans-serif" font-size="13" lengthAdjust="spacing" textLength="155" x="1045" y="227.7256">Create a new TypeOfRobot</text><path d="M1043,245.9883 L1043,272.9883 L1299,272.9883 L1299,255.9883 L1289,245.9883 L1043,245.9883 " fill="#FEFFDD" style="stroke:#181818;stroke-width:0.5;"/><path d="M1289,245.9883 L1289,255.9883 L1299,255.9883 L1289,245.9883 " fill="#FEFFDD" style="stroke:#181818;stroke-width:0.5;"/><text fill="#000000" font-family="sans-serif" font-size="13" lengthAdjust="spacing" textLength="235" x="1049" y="265.0166">Does the necessary parameter validation</text><polygon fill="#181818" points="1049,297.5703,1039,301.5703,1049,305.5703,1045,301.5703" style="stroke:#181818;stroke-width:1.0;"/><line style="stroke:#181818;stroke-width:1.0;" x1="1043" x2="1350.5" y1="301.5703" y2="301.5703"/><text fill="#000000" font-family="sans-serif" font-size="13" lengthAdjust="spacing" textLength="186" x="1055" y="296.3076">Return the created TypeOfRobot</text><polygon fill="#181818" points="1234,346.1523,1244,350.1523,1234,354.1523,1238,350.1523" style="stroke:#181818;stroke-width:1.0;"/><line style="stroke:#181818;stroke-width:1.0;" x1="1038" x2="1240" y1="350.1523" y2="350.1523"/><text fill="#000000" font-family="sans-serif" font-size="13" lengthAdjust="spacing" textLength="109" x="1045" y="327.5986">Call "save" method</text><text fill="#000000" font-family="sans-serif" font-size="13" lengthAdjust="spacing" textLength="189" x="1045" y="344.8896">(Using the created TypeOfRobot)</text><polygon fill="#181818" points="1543,377.4434,1553,381.4434,1543,385.4434,1547,381.4434" style="stroke:#181818;stroke-width:1.0;"/><line style="stroke:#181818;stroke-width:1.0;" x1="1256" x2="1549" y1="381.4434" y2="381.4434"/><text fill="#000000" font-family="sans-serif" font-size="13" lengthAdjust="spacing" textLength="280" x="1263" y="376.1807">Map the TypeOfRobot to persistence data model</text><polygon fill="#181818" points="1267,408.7344,1257,412.7344,1267,416.7344,1263,412.7344" style="stroke:#181818;stroke-width:1.0;"/><line style="stroke:#181818;stroke-width:1.0;" x1="1261" x2="1559" y1="412.7344" y2="412.7344"/><text fill="#000000" font-family="sans-serif" font-size="13" lengthAdjust="spacing" textLength="189" x="1273" y="407.4717">Return the mapped TypeOfRobot</text><polygon fill="#181818" points="1621.5,440.0254,1631.5,444.0254,1621.5,448.0254,1625.5,444.0254" style="stroke:#181818;stroke-width:1.0;"/><line style="stroke:#181818;stroke-width:1.0;" x1="1256" x2="1627.5" y1="444.0254" y2="444.0254"/><text fill="#000000" font-family="sans-serif" font-size="13" lengthAdjust="spacing" textLength="129" x="1263" y="438.7627">Save the TypeOfRobot</text><polygon fill="#181818" points="1267,471.3164,1257,475.3164,1267,479.3164,1263,475.3164" style="stroke:#181818;stroke-width:1.0;"/><line style="stroke:#181818;stroke-width:1.0;stroke-dasharray:2.0,2.0;" x1="1261" x2="1637.5" y1="475.3164" y2="475.3164"/><text fill="#000000" font-family="sans-serif" font-size="13" lengthAdjust="spacing" textLength="176" x="1273" y="470.0537">Return the saved TypeOfRobot</text><polygon fill="#181818" points="1049,502.6074,1039,506.6074,1049,510.6074,1045,506.6074" style="stroke:#181818;stroke-width:1.0;"/><line style="stroke:#181818;stroke-width:1.0;stroke-dasharray:2.0,2.0;" x1="1043" x2="1250" y1="506.6074" y2="506.6074"/><text fill="#000000" font-family="sans-serif" font-size="13" lengthAdjust="spacing" textLength="176" x="1055" y="501.3447">Return the saved TypeOfRobot</text><polygon fill="#181818" points="826,533.8984,816,537.8984,826,541.8984,822,537.8984" style="stroke:#181818;stroke-width:1.0;"/><line style="stroke:#181818;stroke-width:1.0;stroke-dasharray:2.0,2.0;" x1="820" x2="1032" y1="537.8984" y2="537.8984"/><text fill="#000000" font-family="sans-serif" font-size="13" lengthAdjust="spacing" textLength="176" x="832" y="532.6357">Return the saved TypeOfRobot</text><polygon fill="#181818" points="603,565.1895,593,569.1895,603,573.1895,599,569.1895" style="stroke:#181818;stroke-width:1.0;"/><line style="stroke:#181818;stroke-width:1.0;stroke-dasharray:2.0,2.0;" x1="597" x2="809" y1="569.1895" y2="569.1895"/><text fill="#000000" font-family="sans-serif" font-size="13" lengthAdjust="spacing" textLength="176" x="609" y="563.9268">Return the saved TypeOfRobot</text><polygon fill="#181818" points="347,596.4805,337,600.4805,347,604.4805,343,600.4805" style="stroke:#181818;stroke-width:1.0;"/><line style="stroke:#181818;stroke-width:1.0;stroke-dasharray:2.0,2.0;" x1="341" x2="586" y1="600.4805" y2="600.4805"/><text fill="#000000" font-family="sans-serif" font-size="13" lengthAdjust="spacing" textLength="222" x="353" y="595.2178">Return the saved TypeOfRobot (JSON)</text><polygon fill="#181818" points="11,627.7715,1,631.7715,11,635.7715,7,631.7715" style="stroke:#181818;stroke-width:1.0;"/><line style="stroke:#181818;stroke-width:1.0;stroke-dasharray:2.0,2.0;" x1="5" x2="330" y1="631.7715" y2="631.7715"/><text fill="#000000" font-family="sans-serif" font-size="13" lengthAdjust="spacing" textLength="307" x="17" y="626.5088">Return response: saved TypeOfRobot in JSON format</text><!--SRC=[ZPJ1Zk8m38RlVGgBqym1SPaJGaWBtHtjIan7XRdDnRG68fMacnXMlFqwIQ4j2xFq5Cd-lzY_dTPeMHMgHiqmc4pcHZCgJHRcBzFff_vH4J4iKEEMzgHv0EWWJr-JkglBpO6LtiPWzh7gHptJcgeY6nBcgxmVNv8zge92q9-ls5GRfzZOKyH_Vy_w2QjJJTacDsiJgqkpnRUVR_sS1TPrStqyziCfCgxHnHBIMJ8SJdsJC8PtunWi_JwGup4CHbYh4RSNZWfBo3H8i61rb5FmnaizGPmGX3U7WCr3QczUq8bUZ1Bv7AiA1Z6pr-gUU6VALkjzzH9HUXV_B_tKJnzEndRk3zQcF0K7LjbpomqZ2KGXHtCzEr01GTCVwC1RNJC7RUHirNR7O3OH1lAbXXpmZaHVa7DeJo0ZGQbCTk-8bIgHbT49wH8y8cbkRhlBYGzM1qPiiUpLKT9r9USU_0fTt75uf7yCkSFic1BMC80465TAa788sex63rw2JZacNH18MmXxKrBLmfgLR31jXPqEzpvsjy46SAuddObuAOrT5zCPpYoHhE7DkxmbzxsSDTVS7CINqk1P7C9bkn_LXhq9szrvM0zg_SE8R-hohB-ImjElPVRstAlSFyl9SEZL5x4bLnljQ7m3eJHu26oCtMFV1Fa__0K0]--></g></svg>